<?xml version="1.0" standalone="no"?>
<!DOCTYPE svg PUBLIC "-//W3C//DTD SVG 20010904//EN"
 "http://www.w3.org/TR/2001/REC-SVG-20010904/DTD/svg10.dtd">
<svg version="1.0" xmlns="http://www.w3.org/2000/svg"
 width="165.000000pt" height="113.000000pt" viewBox="0 0 165.000000 113.000000"
 preserveAspectRatio="xMidYMid meet">

<g transform="translate(0.000000,113.000000) scale(0.100000,-0.100000)"
fill="#000000" stroke="none">
<path d="M604 1086 c-134 -35 -237 -91 -337 -185 -41 -38 -77 -87 -77 -104 0
-3 7 -7 15 -10 9 -4 28 12 53 43 129 161 328 250 562 250 232 0 447 -94 560
-244 27 -35 47 -53 56 -49 28 10 13 37 -63 112 -95 93 -201 152 -340 187 -132
33 -299 33 -429 0z"/>
<path d="M533 933 c-21 -8 -15 -33 12 -45 13 -6 22 -15 19 -19 -3 -5 -14 -4
-25 1 -11 6 -19 7 -19 2 0 -15 40 -22 66 -12 31 12 30 27 -1 42 -14 6 -25 15
-25 20 0 5 9 4 19 -2 29 -15 39 -12 17 5 -20 15 -40 18 -63 8z"/>
<path d="M629 938 c0 -2 -1 -20 -2 -41 -2 -32 1 -37 20 -37 16 0 21 4 17 15
-4 9 0 15 10 15 9 0 16 -7 16 -15 0 -8 8 -15 18 -15 13 0 17 9 19 40 1 33 -2
40 -18 40 -12 0 -19 -7 -19 -20 0 -11 -7 -20 -16 -20 -11 0 -14 6 -9 20 5 16
2 20 -14 20 -12 0 -21 -1 -22 -2z"/>
<path d="M759 938 c0 -2 -1 -20 -2 -41 -2 -31 1 -37 18 -37 17 0 20 7 20 40 1
32 -3 40 -17 40 -10 0 -18 -1 -19 -2z"/>
<path d="M845 932 c-28 -10 -32 -72 -4 -72 10 0 19 7 19 15 0 9 6 12 15 9 10
-4 15 0 15 11 0 12 -5 15 -21 10 -16 -5 -20 -3 -17 6 3 8 17 13 32 12 14 -1
24 2 21 8 -7 10 -30 10 -60 1z"/>
<path d="M935 900 c0 -33 3 -40 20 -40 17 0 20 7 20 40 0 34 -3 40 -20 40 -18
0 -21 -6 -20 -40z"/>
<path d="M1035 900 c0 -31 4 -40 18 -40 13 0 17 8 17 35 0 39 14 46 30 14 9
-15 8 -24 -1 -36 -11 -13 -10 -14 11 -11 18 2 26 10 28 27 5 32 -21 51 -68 51
-35 0 -36 -1 -35 -40z"/>
<path d="M895 870 c-3 -5 -2 -10 4 -10 5 0 13 5 16 10 3 6 2 10 -4 10 -5 0
-13 -4 -16 -10z"/>
<path d="M995 871 c-6 -11 9 -23 19 -14 9 9 7 23 -3 23 -6 0 -12 -4 -16 -9z"/>
<path d="M325 810 c-4 -6 -1 -18 7 -27 11 -15 11 -16 -5 -10 -11 4 -16 3 -12
-3 8 -13 32 -13 41 1 4 7 -1 16 -10 21 -9 5 -14 13 -11 19 4 5 4 9 1 9 -3 0
-8 -5 -11 -10z"/>
<path d="M745 810 c-3 -5 -13 -6 -23 -3 -13 5 -14 3 -5 -7 6 -7 9 -19 6 -26
-3 -8 1 -14 11 -14 10 0 13 6 10 15 -4 8 -1 22 6 30 7 8 10 15 7 15 -3 0 -8
-4 -12 -10z"/>
<path d="M802 808 c-7 -7 -12 -17 -12 -24 0 -20 32 -26 49 -9 14 13 14 15 -2
15 -10 0 -15 -4 -12 -10 3 -5 1 -10 -6 -10 -7 0 -9 10 -7 25 6 29 6 29 -10 13z"/>
<path d="M901 798 c-1 -32 -21 -39 -21 -8 0 11 -4 20 -10 20 -16 0 -11 -40 6
-47 21 -8 37 10 31 38 -4 22 -4 22 -6 -3z"/>
<path d="M945 803 c4 -10 8 -24 8 -30 0 -7 6 -13 14 -13 11 0 11 6 -2 30 -17
32 -32 42 -20 13z"/>
<path d="M1087 796 c3 -15 1 -26 -5 -26 -6 0 -12 10 -14 23 -3 20 -4 20 -9 -5
-5 -22 -3 -28 11 -28 10 0 23 7 30 16 11 12 11 18 -2 30 -14 14 -15 13 -11
-10z"/>
<path d="M370 785 c0 -19 5 -25 23 -24 12 0 16 3 10 6 -7 2 -13 13 -13 24 0
10 -4 19 -10 19 -5 0 -10 -11 -10 -25z"/>
<path d="M425 800 c-4 -7 0 -19 9 -28 20 -21 26 -13 10 16 -8 16 -14 20 -19
12z"/>
<path d="M493 790 c3 -33 41 -36 43 -2 1 18 1 19 -3 2 -6 -27 -21 -25 -33 3
-10 22 -10 22 -7 -3z"/>
<path d="M554 785 c-1 -14 2 -25 7 -25 5 0 9 11 9 25 0 33 -15 33 -16 0z"/>
<path d="M582 788 c2 -12 10 -24 18 -26 13 -5 13 -3 2 11 -8 9 -11 21 -7 27 3
5 1 10 -5 10 -6 0 -10 -10 -8 -22z"/>
<path d="M620 785 c0 -14 4 -25 9 -25 4 0 6 11 3 25 -2 14 -6 25 -8 25 -2 0
-4 -11 -4 -25z"/>
<path d="M658 802 c7 -5 10 -16 6 -25 -3 -10 -1 -17 5 -17 6 0 11 11 11 25 0
17 -5 25 -17 25 -13 0 -15 -2 -5 -8z"/>
<path d="M990 785 c0 -14 5 -25 10 -25 6 0 10 11 10 25 0 14 -4 25 -10 25 -5
0 -10 -11 -10 -25z"/>
<path d="M1021 788 c-1 -16 4 -28 9 -28 12 0 12 8 0 35 -8 18 -9 17 -9 -7z"/>
<path d="M1120 800 c0 -5 5 -12 11 -16 8 -4 7 -9 -2 -16 -11 -7 -9 -8 6 -6 26
4 29 43 4 45 -11 1 -19 -2 -19 -7z"/>
<path d="M1199 788 c-5 -22 -3 -28 12 -28 10 0 21 4 24 10 3 5 0 7 -9 4 -10
-4 -16 2 -18 18 -3 22 -4 21 -9 -4z"/>
<path d="M1251 788 c-1 -28 21 -39 34 -18 3 5 0 7 -9 4 -9 -4 -16 2 -19 18 -4
21 -4 20 -6 -4z"/>
<path d="M1300 785 c0 -14 3 -25 8 -25 10 0 35 41 28 48 -3 3 -6 0 -6 -6 0 -7
-5 -12 -11 -12 -5 0 -7 5 -4 10 3 6 1 10 -4 10 -6 0 -11 -11 -11 -25z"/>
<path d="M926 775 c-3 -8 -1 -15 4 -15 6 0 10 7 10 15 0 8 -2 15 -4 15 -2 0
-6 -7 -10 -15z"/>
<path d="M112 747 c-21 -57 -17 -63 56 -91 249 -94 308 -116 313 -116 4 0 19
19 34 41 21 32 24 43 14 50 -12 7 -342 130 -384 143 -17 5 -23 0 -33 -27z"/>
<path d="M1480 770 c-32 -10 -374 -141 -378 -145 -2 -2 42 -72 52 -83 3 -2
387 135 393 141 5 6 -28 97 -35 96 -4 0 -18 -4 -32 -9z"/>
<path d="M720 681 c-110 -35 -200 -131 -200 -212 0 -80 67 -172 152 -210 72
-32 207 -32 289 0 62 24 124 79 145 128 42 98 -16 217 -133 274 -38 19 -67 24
-138 26 -49 1 -101 -1 -115 -6z m230 -32 c89 -39 142 -111 142 -191 0 -72 -43
-132 -127 -176 -45 -24 -61 -27 -151 -27 -94 0 -104 2 -149 30 -122 76 -151
214 -63 304 83 85 231 110 348 60z"/>
<path d="M698 530 c12 -5 22 -17 22 -27 0 -14 2 -15 13 -4 10 10 8 15 -7 27
-11 8 -27 14 -35 13 -10 0 -7 -4 7 -9z"/>
<path d="M780 522 c-29 -24 -21 -50 26 -80 29 -19 33 -26 24 -38 -10 -11 -9
-14 3 -14 9 0 21 9 27 20 15 27 -3 59 -41 72 -32 11 -39 35 -12 45 10 4 23 -2
35 -16 13 -18 18 -19 18 -7 0 15 -28 36 -48 36 -5 0 -20 -8 -32 -18z"/>
<path d="M920 527 c-27 -14 -40 -49 -32 -87 8 -41 22 -51 69 -49 42 3 43 3 43
38 0 32 -3 36 -25 36 -14 0 -25 -3 -25 -7 0 -5 5 -8 10 -8 6 0 10 -11 10 -25
0 -19 -5 -25 -20 -25 -19 0 -21 5 -18 62 2 51 6 63 21 66 10 2 21 -5 26 -20 6
-14 10 -17 10 -7 1 17 -18 39 -33 39 -6 0 -22 -6 -36 -13z"/>
<path d="M652 517 c-19 -23 -8 -48 34 -75 29 -19 33 -26 24 -38 -10 -11 -9
-14 3 -14 9 0 21 9 27 20 14 27 -1 54 -39 70 -17 7 -31 21 -33 33 -3 18 -4 19
-16 4z"/>
<path d="M646 432 c-9 -14 10 -42 28 -42 8 0 8 2 0 8 -7 4 -13 16 -16 27 -2
15 -6 17 -12 7z"/>
<path d="M766 432 c-9 -14 10 -42 28 -42 8 0 8 2 0 8 -7 4 -13 16 -16 27 -2
15 -6 17 -12 7z"/>
<path d="M80 588 l0 -53 163 -59 c179 -65 237 -91 237 -107 0 -13 89 -108 115
-121 11 -6 -2 8 -28 32 -59 53 -77 85 -85 162 l-7 60 -180 69 c-99 37 -188 68
-197 69 -15 0 -18 -9 -18 -52z"/>
<path d="M1425 599 c-60 -21 -145 -53 -187 -70 l-78 -31 0 -47 c-1 -88 -55
-163 -155 -216 -27 -14 -39 -23 -25 -19 46 12 125 73 155 119 17 25 47 55 67
66 34 17 180 72 311 117 l47 16 0 53 c0 36 -4 53 -12 52 -7 0 -62 -18 -123
-40z"/>
<path d="M142 438 c30 -137 175 -281 356 -354 117 -47 179 -58 322 -58 109 0
151 4 218 22 167 45 320 144 398 258 40 59 82 160 71 170 -11 12 -45 -17 -52
-43 -13 -55 -66 -132 -135 -196 -78 -75 -191 -134 -303 -162 -334 -81 -693 60
-813 319 -28 61 -48 86 -69 86 -1 0 1 -19 7 -42z"/>
<path d="M1261 368 c-7 -20 -5 -24 23 -29 32 -5 64 3 33 9 -9 2 -15 8 -12 13
4 5 1 9 -4 9 -6 0 -11 -5 -11 -11 0 -5 -4 -8 -10 -4 -5 3 -7 12 -3 20 3 8 2
15 -1 15 -4 0 -10 -10 -15 -22z"/>
<path d="M316 371 c-9 -14 5 -41 20 -41 8 0 17 7 20 15 4 8 10 15 16 15 5 0 6
-4 3 -10 -3 -5 -1 -10 5 -10 7 0 9 7 6 16 -3 9 -6 18 -6 20 0 11 -31 2 -36
-11 -4 -8 -11 -15 -16 -15 -6 0 -8 7 -4 15 6 16 1 20 -8 6z"/>
<path d="M357 316 c-25 -11 -26 -14 -13 -32 8 -10 18 -16 22 -11 4 4 2 7 -4 7
-7 0 -12 5 -12 11 0 6 9 8 21 4 15 -5 19 -4 15 4 -4 6 -2 11 3 11 6 0 11 -5
11 -12 0 -6 2 -9 5 -6 7 7 -5 38 -14 37 -3 0 -18 -6 -34 -13z"/>
<path d="M1236 311 c-3 -4 10 -13 30 -19 31 -9 35 -8 46 11 10 19 9 20 -4 9
-11 -9 -23 -10 -41 -3 -15 6 -29 7 -31 2z"/>
<path d="M1199 264 c-23 -25 -23 -26 -3 -20 13 4 26 1 34 -9 12 -14 15 -14 31
1 11 10 19 22 19 28 0 6 -5 3 -11 -7 -6 -9 -15 -15 -20 -12 -5 4 -6 11 -3 17
4 6 -2 8 -17 4 -23 -7 -23 -7 -5 8 11 9 15 16 10 16 -6 0 -21 -12 -35 -26z"/>
<path d="M391 261 c-14 -10 -19 -21 -13 -24 5 -4 15 0 22 8 7 8 17 15 22 15 5
0 2 -7 -6 -16 -25 -24 -19 -40 7 -18 12 10 24 20 26 21 5 3 -20 33 -28 33 -3
0 -17 -9 -30 -19z"/>
<path d="M451 222 c-16 -30 -14 -41 7 -35 11 2 18 13 17 24 -2 28 -12 33 -24
11z"/>
<path d="M625 232 c17 -16 104 -42 138 -41 25 1 22 3 -16 9 -27 5 -68 16 -90
25 -23 9 -37 12 -32 7z"/>
<path d="M1157 233 c-15 -14 -6 -23 26 -24 27 0 29 -2 12 -9 -15 -7 -16 -9 -4
-9 9 -1 22 6 29 14 10 12 9 16 -3 21 -9 3 -21 3 -28 -1 -6 -4 -14 -2 -18 4 -4
6 -10 8 -14 4z"/>
<path d="M498 203 c7 -3 16 -2 19 1 4 3 -2 6 -13 5 -11 0 -14 -3 -6 -6z"/>
<path d="M885 200 l-40 -7 35 -1 c19 0 44 3 55 8 24 10 7 10 -50 0z"/>
<path d="M1092 197 c-21 -12 -21 -14 -5 -30 9 -9 14 -19 11 -22 -8 -9 -38 6
-32 16 3 5 -2 9 -11 9 -9 0 -13 -4 -10 -10 3 -5 1 -10 -4 -10 -6 0 -11 5 -11
10 0 7 -6 7 -19 0 -11 -5 -31 -10 -45 -10 -14 0 -26 -5 -26 -11 0 -5 -5 -7
-10 -4 -6 4 -17 1 -25 -5 -11 -9 -15 -9 -15 -1 0 6 -6 11 -14 11 -9 0 -12 -8
-8 -25 2 -14 11 -25 20 -25 8 0 13 3 9 6 -3 4 1 13 10 22 14 14 17 14 28 -1
22 -30 84 -15 72 18 -4 9 -3 14 3 10 6 -3 10 -13 10 -21 0 -9 6 -14 13 -11 6
2 11 10 9 16 -1 7 6 9 22 5 14 -3 36 1 53 10 15 8 23 15 16 16 -7 0 -10 7 -7
15 5 11 1 14 -12 9 -18 -5 -18 -5 0 10 23 19 10 20 -22 3z m-107 -68 c12 -19
-5 -23 -22 -6 -16 16 -16 17 -1 17 9 0 20 -5 23 -11z"/>
<path d="M513 174 c-13 -15 -16 -24 -9 -27 7 -3 21 6 33 19 13 15 16 24 9 27
-7 3 -21 -6 -33 -19z"/>
<path d="M808 183 c6 -2 18 -2 25 0 6 3 1 5 -13 5 -14 0 -19 -2 -12 -5z"/>
<path d="M555 166 c-16 -12 -17 -16 -6 -30 7 -9 23 -16 35 -15 20 0 20 1 -3
10 -20 8 -21 12 -10 25 12 14 14 14 25 -1 7 -10 15 -12 18 -6 4 5 -2 15 -13
20 -25 14 -23 14 -46 -3z"/>
<path d="M624 136 c-9 -20 -9 -26 3 -30 8 -3 15 -6 16 -6 1 0 3 14 4 30 3 36
-8 39 -23 6z"/>
<path d="M660 135 c-7 -8 -9 -15 -6 -15 4 0 14 7 22 15 9 8 11 15 6 15 -5 0
-15 -7 -22 -15z"/>
<path d="M718 116 c-5 -27 15 -37 26 -13 5 10 7 10 12 0 10 -21 24 -14 20 10
-2 15 -11 23 -28 25 -20 2 -26 -2 -30 -22z"/>
<path d="M794 110 c1 -26 5 -30 28 -30 15 0 29 4 32 9 4 5 -2 7 -13 4 -12 -3
-20 2 -24 16 -3 15 1 21 17 24 15 3 12 5 -10 6 -28 1 -31 -2 -30 -29z"/>
</g>
</svg>
