<?xml version="1.0" encoding="UTF-8" standalone="no"?>
<svg
   xmlns:dc="http://purl.org/dc/elements/1.1/"
   xmlns:cc="http://creativecommons.org/ns#"
   xmlns:rdf="http://www.w3.org/1999/02/22-rdf-syntax-ns#"
   xmlns:svg="http://www.w3.org/2000/svg"
   xmlns="http://www.w3.org/2000/svg"
   viewBox="0 0 595.27557 841.88977"
   id="svg2"
   height="841.88977"
   width="595.27557"
   version="1.1">
  <metadata
     id="metadata44">
    <rdf:RDF>
      <cc:Work
         rdf:about="">
        <dc:format>image/svg+xml</dc:format>
        <dc:type
           rdf:resource="http://purl.org/dc/dcmitype/StillImage" />
      </cc:Work>
    </rdf:RDF>
  </metadata>
  <defs
     id="defs42" />
  <g
     id="g4">
    <path
       id="path6"
       style="fill:none;stroke:#1b1918;stroke-width:0.56690001;stroke-linecap:butt;stroke-linejoin:miter;stroke-dasharray:none"
       d="m 81.6378,204.9449 0,432 432,0 0,-432 -432,0 z" />
    <g
       id="g8">
      <path
         id="path10"
         style="fill:#003865;fill-rule:evenodd"
         d="m 140.9198,430.4666 c 12.7496,3.8446 30.3484,14.6034 43.0706,20.8851 59.5574,29.4099 30.9847,14.7962 51.677,44.2608 14.4533,20.5803 35.0381,34.4051 62.2178,34.3923 18.8263,-0.009 34.6405,-7.4126 45.9812,-16.817 14.3557,-11.9049 16.6812,-18.0143 26.5109,-37.8959 4.0939,-8.2793 32.0679,-19.3303 40.2822,-23.3905 13.1408,-6.4948 31.1736,-17.4868 43.6962,-21.4244 l -0.6795,-32.1089 c -6.4158,0.5813 -79.0529,37.3694 -84.2031,41.8523 -0.1233,31.2736 -3.0558,43.6033 -18.3374,61.5586 -28.2862,33.2348 -79.945,31.9238 -106.7842,0.3076 -17.4779,-20.5888 -16.3347,-29.7338 -18.5296,-63.4563 -16.9816,-6.4559 -72.1102,-39.1799 -83.3775,-40.2563 l -1.5246,32.0926 z" />
      <path
         id="path12"
         style="fill:#003865;fill-rule:evenodd"
         d="m 297.8843,566.566 c -53.3552,-4e-4 -99.755,-32.7141 -121.6436,-77.4862 -17.8704,-36.5524 -6.1855,-39.4718 -23.6266,-44.3327 7.6036,71.0466 70.6572,131.8847 145.2702,131.8847 74.7413,0 137.4879,-60.7672 145.2702,-131.8847 -14.0338,3.9116 -9.8715,7.1494 -14.1868,21.2669 -17.7482,58.0639 -70.0419,100.553 -131.0834,100.552 z" />
      <path
         id="path14"
         style="fill:#003865;fill-rule:evenodd"
         d="m 164.3432,357.3973 7.1874,2.6039 c 2.4725,-2.3962 11.024,-19.789 20.3811,-31.8957 8.2348,-10.6549 15.817,-18.0719 27.382,-26.6096 47.684,-35.2015 109.0353,-34.8619 157.1681,0.0143 15.691,11.3694 27.8229,25.0967 37.8847,41.5343 3.3167,5.418 5.4157,12.6495 9.8794,16.9287 l 7.1059,-2.8352 c -5.8092,-24.6327 -34.1419,-52.6765 -48.9761,-63.5941 -50.8175,-37.4009 -117.1296,-37.7872 -167.9727,-0.7092 -15.4221,11.2469 -44.018,39.202 -50.0398,64.5626 z" />
      <path
         id="path16"
         style="fill:#003865;fill-rule:evenodd"
         d="m 144.9802,388.1355 82.2003,42.1466 c 1.9381,-2.8594 11.645,-23.3394 13.1203,-26.685 -16.0212,-7.6695 -77.9748,-40.9811 -88.6356,-43.7489 -2.1018,9.3256 -6.3659,17.6443 -6.685,28.2873 z" />
      <path
         id="path18"
         style="fill:#003865;fill-rule:evenodd"
         d="m 355.3123,403.5032 c 3.6107,9.0613 9.1678,14.6284 11.4548,26.737 l 84.2263,-41.6239 c -0.5772,-11.1671 -4.7678,-19.347 -6.9004,-28.7568 -11.697,3.009 -32.7912,15.7554 -44.3617,21.4628 -14.3203,7.0642 -30.2666,16.16 -44.419,22.1809 z" />
      <path
         id="path20"
         style="fill:#e30016;fill-rule:evenodd"
         d="m 284.6328,392.586 c 34.8954,-8.9624 62.4959,16.4183 68.5912,44.6235 8.1245,37.5967 -16.2728,65.7157 -42.5729,72.1411 -73.0772,17.8534 -98.4332,-98.1661 -26.0183,-116.7646 z m -0.1186,-7.0327 c -30.047,7.0223 -57.1086,39.1169 -48.1812,79.7555 18.6481,84.8891 140.5232,57.2179 123.0067,-29.2682 -6.338,-31.2938 -37.5483,-59.1997 -74.8255,-50.4873 z" />
      <path
         id="path22"
         style="fill:#006aa6;fill-rule:evenodd"
         d="m 281.2175,441.6579 -4.1504,1.0585 c 0.1771,-1.1432 0.2619,-2.0957 0.2619,-2.8684 0,-4.9431 -2.1716,-7.4092 -6.5072,-7.4092 -3.4266,0 -5.1361,1.6934 -5.1361,5.091 0,2.5404 1.9173,4.7208 5.7447,6.5415 7.3848,3.4929 11.0732,8.669 11.0732,15.5172 0,4.0116 -1.0394,7.2295 -3.111,9.6638 -2.0792,2.424 -4.8359,3.6414 -8.278,3.6414 -7.6235,0 -11.4355,-4.0541 -11.4355,-12.1725 0,-0.6562 0.0462,-1.4715 0.1309,-2.4452 l 4.3047,-1.3019 c -0.339,1.7994 -0.5082,3.3553 -0.5082,4.6786 0,5.25 2.1869,7.8749 6.5687,7.8749 3.5036,0 5.2594,-1.8947 5.2594,-5.6733 0,-2.8156 -2.0945,-5.2925 -6.2915,-7.4199 -6.0602,-3.0592 -9.0941,-7.9492 -9.0941,-14.6705 0,-3.8106 1.0085,-6.8694 3.0339,-9.1981 2.0251,-2.3287 4.682,-3.4931 7.9778,-3.4931 6.7686,0 10.1568,4.1916 10.1568,12.5852 z m 25.3582,0 -4.1508,1.0585 c 0.1772,-1.1432 0.262,-2.0957 0.262,-2.8684 0,-4.9431 -2.1714,-7.4092 -6.507,-7.4092 -3.4265,0 -5.1363,1.6934 -5.1363,5.091 0,2.5404 1.9176,4.7208 5.7447,6.5415 7.3851,3.4929 11.0735,8.669 11.0735,15.5172 0,4.0116 -1.0398,7.2295 -3.111,9.6638 -2.0792,2.424 -4.8362,3.6414 -8.2783,3.6414 -7.6235,0 -11.4353,-4.0541 -11.4353,-12.1725 0,-0.6562 0.0462,-1.4715 0.131,-2.4452 l 4.3044,-1.3019 c -0.3387,1.7994 -0.508,3.3553 -0.508,4.6786 0,5.25 2.187,7.8749 6.5688,7.8749 3.5036,0 5.2591,-1.8947 5.2591,-5.6733 0,-2.8156 -2.0943,-5.2925 -6.2912,-7.4199 -6.0605,-3.0592 -9.0944,-7.9492 -9.0944,-14.6705 0,-3.8106 1.0088,-6.8694 3.0339,-9.1981 2.0253,-2.3287 4.682,-3.4931 7.9778,-3.4931 6.7689,0 10.1571,4.1916 10.1571,12.5852 z m 17.2647,7.6105 12.706,0 0,22.8631 -2.8414,0 -0.9703,-2.9109 c -2.4795,2.4029 -5.1055,3.6094 -7.8778,3.6094 -4.5663,0 -8.1088,-1.8735 -10.6344,-5.6311 -2.5181,-3.7468 -3.7812,-9.0394 -3.7812,-15.8558 0,-6.6368 1.3402,-12.0138 4.0122,-16.1102 2.6722,-4.1068 6.1682,-6.1602 10.4882,-6.1602 5.6905,0 9.1562,4.0011 10.3881,12.003 l -4.189,2.6252 0,-1.0268 -0.0695,-2.2864 c -0.2849,-5.0065 -1.9712,-7.5044 -5.0437,-7.5044 -2.264,0 -3.812,1.3229 -4.6358,3.9693 -0.8316,2.6462 -1.2478,7.5785 -1.2478,14.7974 0,6.7425 0.3391,11.3256 1.0089,13.739 0.6701,2.4239 1.9482,3.6306 3.8426,3.6306 2.2179,0 3.3268,-1.6937 3.3268,-5.0808 l 0,-10.4153 -4.4819,0 0,-4.2551 z" />
      <g
         id="g24">
        <path
           id="path26"
           style="fill:#1b1918;fill-rule:evenodd"
           d="m 243.1789,315.4456 c 1.1239,0 2.6002,0.2959 4.4229,0.8816 0.2182,0.0708 0.3917,0.1066 0.5258,0.1066 0.1063,0 0.4362,-0.1066 0.9785,-0.3138 0.1789,-0.0709 0.3634,-0.1004 0.5593,-0.1004 0.7325,0 1.504,0.6095 2.315,1.834 0.8161,1.2249 1.2246,2.3905 1.2246,3.5028 0,0.6449 -0.1848,1.1951 -0.5482,1.639 -0.3688,0.4436 -0.8107,0.6684 -1.3363,0.6684 -0.4362,0 -0.7939,-0.0947 -1.0681,-0.2781 -0.2684,-0.1893 -0.8722,-0.7336 -1.8005,-1.6506 -1.3085,-1.2897 -2.6002,-1.9409 -3.8639,-1.9409 -0.6151,0 -1.1016,0.1599 -1.465,0.4675 -0.369,0.3138 -0.5536,0.722 -0.5536,1.2308 0,1.0057 0.8388,1.7631 2.5107,2.2719 2.2589,0.7042 3.7071,1.2189 4.3392,1.5444 2.7848,1.4317 4.1769,3.5441 4.1769,6.3249 0,2.4613 -0.9505,4.4731 -2.8517,6.035 -1.9403,1.5916 -4.4847,2.3904 -7.6161,2.3904 -1.3978,0 -2.8738,-0.1774 -4.4229,-0.5267 -1.5488,-0.3549 -2.6728,-0.769 -3.3607,-1.2424 -0.5199,-0.3668 -0.9953,-1.1715 -1.4148,-2.414 -0.4193,-1.2424 -0.6316,-2.4553 -0.6316,-3.6329 0,-0.568 0.1117,-0.9941 0.3297,-1.2838 0.2741,-0.3727 0.6151,-0.5564 1.029,-0.5564 0.4192,0 0.8163,0.2251 1.1968,0.6746 0.229,0.2546 0.7715,1.071 1.6217,2.4495 0.4025,0.6448 1.0454,1.1834 1.9233,1.6095 0.8835,0.426 1.7892,0.6389 2.7289,0.6389 0.8107,0 1.4649,-0.1539 1.9681,-0.4734 0.5034,-0.3194 0.7548,-0.7276 0.7548,-1.2246 0,-0.4617 -0.2009,-0.858 -0.5927,-1.1953 -0.3914,-0.3314 -1.0287,-0.6449 -1.9179,-0.9349 -1.5599,-0.5207 -2.751,-0.9938 -3.5674,-1.4318 -0.8221,-0.432 -1.5883,-0.9762 -2.2927,-1.639 -1.7277,-1.6151 -2.5891,-3.4551 -2.5891,-5.5082 0,-1.0177 0.2239,-2.0118 0.6712,-2.9761 0.4473,-0.9647 1.0792,-1.7989 1.9012,-2.503 1.834,-1.6271 4.0706,-2.4435 6.7156,-2.4435 z m 18.7883,0.1006 c 3.4052,0 5.1108,0.7455 5.1108,2.2366 0,0.4082 -0.0895,0.7336 -0.2627,0.9878 -0.1735,0.2546 -0.5091,0.5386 -1.0012,0.8521 -0.4249,0.2781 -0.6934,0.639 -0.8107,1.0948 -0.112,0.4496 -0.1676,1.3606 -0.1676,2.7334 0,0.8105 0.1395,1.3077 0.425,1.4911 0.1618,0.1182 0.4138,0.1893 0.7435,0.2128 0.3353,0.0179 1.1185,0.0298 2.3544,0.0298 1.1237,0 1.8227,-0.0592 2.0968,-0.1894 0.2685,-0.1244 0.4082,-0.4439 0.4082,-0.9527 0,-1.5264 -0.0672,-2.5855 -0.1959,-3.189 -0.134,-0.6035 -0.3914,-1.0119 -0.7715,-1.2308 -0.4808,-0.2899 -0.7997,-0.5323 -0.9508,-0.7395 -0.1508,-0.2013 -0.2293,-0.4675 -0.2293,-0.8048 0,-0.4731 0.1681,-0.9051 0.5091,-1.2897 0.3353,-0.3847 0.777,-0.6509 1.3252,-0.7869 1.135,-0.29 2.5608,-0.438 4.2775,-0.438 2.0075,0 3.4894,0.1953 4.4455,0.5859 0.9565,0.3847 1.4372,0.9882 1.4372,1.8105 0,0.6922 -0.3413,1.213 -1.0176,1.556 -0.4252,0.2131 -0.7047,0.4084 -0.8388,0.5978 -0.1287,0.195 -0.235,0.5502 -0.3076,1.0709 -0.0447,0.284 -0.1009,1.5679 -0.1621,3.8458 -0.0672,2.2779 -0.1006,4.0824 -0.1006,5.4255 0,2.3491 0.0836,3.8341 0.2457,4.4731 0.0839,0.3432 0.1846,0.5799 0.2963,0.6922 0.1065,0.1185 0.4529,0.3492 1.0289,0.6922 0.4142,0.2426 0.6265,0.6154 0.6265,1.1126 0,0.8756 -0.4978,1.5146 -1.4874,1.9168 -0.9841,0.3966 -2.5888,0.5975 -4.8033,0.5975 -1.9459,0 -3.3831,-0.2069 -4.3112,-0.6091 -0.8387,-0.3671 -1.2637,-0.9409 -1.2637,-1.7161 0,-0.6565 0.324,-1.1713 0.9672,-1.5441 0.3186,-0.1834 0.5315,-0.3668 0.6486,-0.5561 0.112,-0.1834 0.2293,-0.5207 0.3356,-1.0179 0.1959,-0.9703 0.2965,-2.1654 0.2965,-3.5737 0,-0.7276 -0.1006,-1.1772 -0.3022,-1.349 -0.2069,-0.1774 -0.7324,-0.2602 -1.5825,-0.2602 -1.9568,0 -3.1984,0.1122 -3.7353,0.3433 -0.2179,0.0944 -0.3577,0.3668 -0.4079,0.8163 -0.0671,0.5562 -0.1009,1.2365 -0.1009,2.0472 0,1.3136 0.1735,2.2601 0.5259,2.8401 0.1173,0.1834 0.4025,0.4201 0.8498,0.71 0.4583,0.2781 0.6877,0.7336 0.6877,1.3726 0,0.8047 -0.5312,1.4261 -1.588,1.8518 -1.0568,0.4261 -2.5722,0.6449 -4.5349,0.6449 -1.7949,0 -3.2544,-0.2009 -4.3951,-0.5916 -0.4864,-0.1715 -0.8722,-0.4201 -1.152,-0.7395 -0.2795,-0.3135 -0.4192,-0.6628 -0.4192,-1.0471 0,-0.3787 0.0895,-0.6747 0.2627,-0.8816 0.1735,-0.2072 0.5593,-0.4734 1.1464,-0.7988 0.3075,-0.1599 0.5201,-0.3668 0.6485,-0.6214 0.1231,-0.2542 0.218,-0.6862 0.2855,-1.2838 0.1618,-1.3549 0.2458,-3.124 0.2458,-5.3073 0,-0.4025 -0.006,-0.8816 -0.0168,-1.4377 -0.0448,-2.7751 -0.0672,-4.3549 -0.0672,-4.7512 0.0114,-0.9941 -0.0669,-1.6449 -0.2347,-1.9644 -0.1678,-0.3194 -0.6151,-0.6687 -1.3362,-1.0474 -0.4811,-0.2423 -0.7214,-0.6091 -0.7214,-1.0944 0,-1.1656 1.0734,-1.9764 3.2094,-2.4259 1.2472,-0.2662 2.5276,-0.4023 3.8361,-0.4023 z m 26.8682,0.0176 c 1.2466,0 2.4213,0.1185 3.5229,0.3492 1.4873,0.3136 2.2254,0.9763 2.2254,1.9939 0,0.3374 -0.0728,0.5857 -0.2182,0.7515 -0.1454,0.1715 -0.5199,0.4141 -1.124,0.7396 -0.5031,0.2661 -0.8331,0.8461 -0.9895,1.7512 -0.1565,0.8994 -0.235,2.6566 -0.235,5.2659 0,4.4138 0.1006,7.1476 0.3075,8.2006 0.0786,0.3374 0.1959,0.5916 0.3524,0.775 0.1565,0.1775 0.436,0.3728 0.8274,0.58 0.7214,0.343 1.0794,0.8462 1.0794,1.5086 0,0.9233 -0.6655,1.5562 -1.9964,1.9052 -1.4425,0.3671 -3.204,0.5561 -5.2897,0.5561 -3.5618,0 -5.3402,-0.7217 -5.3402,-2.1535 0,-0.5207 0.3467,-1.006 1.0457,-1.4555 0.5369,-0.3433 0.8501,-0.8224 0.9507,-1.4199 0.207,-1.3195 0.3133,-4.1122 0.3133,-8.39 0,-2.9585 -0.1455,-4.8518 -0.4252,-5.686 -0.1565,-0.4734 -0.5199,-0.8994 -1.1016,-1.2838 -0.4473,-0.3079 -0.7495,-0.5681 -0.9003,-0.7813 -0.1511,-0.2069 -0.2293,-0.4731 -0.2293,-0.7925 0,-0.4972 0.2293,-0.8935 0.6823,-1.1894 0.453,-0.296 1.2526,-0.5562 2.399,-0.7869 1.3643,-0.29 2.7453,-0.438 4.1434,-0.438 z m 10.2552,0.3671 8.4157,0 c 1.7054,0 2.9469,-0.0357 3.7296,-0.1125 0.7829,-0.0769 1.5434,-0.2308 2.287,-0.4615 0.2293,-0.0652 0.4082,-0.1006 0.5368,-0.1006 0.5704,0 1.0735,0.3194 1.5098,0.9703 0.7214,1.0533 1.0794,2.3193 1.0794,3.8103 0,0.7514 -0.1514,1.343 -0.4476,1.781 -0.3019,0.432 -0.7157,0.6449 -1.2356,0.6449 -0.3637,0 -0.6432,-0.0768 -0.8444,-0.2308 -0.2013,-0.1539 -0.4754,-0.5088 -0.8107,-1.0471 -0.4811,-0.7753 -1.0905,-1.296 -1.8287,-1.5562 -0.7381,-0.2602 -1.946,-0.3906 -3.6289,-0.3906 -1.2583,0 -2.0185,0.2426 -2.2927,0.716 -0.1454,0.2546 -0.2293,0.5916 -0.2571,1.0236 -0.0226,0.426 -0.0391,1.5148 -0.0391,3.272 0,0.6923 0.1117,1.1243 0.3297,1.2898 0.218,0.1715 0.7883,0.2545 1.7167,0.2545 0.4586,0 0.7939,-0.1006 1.0009,-0.3018 0.2069,-0.2073 0.341,-0.5681 0.3914,-1.0829 0.0786,-0.6743 0.1568,-1.1299 0.2404,-1.3785 0.0782,-0.2486 0.2293,-0.4674 0.4476,-0.6508 0.229,-0.2072 0.4975,-0.3135 0.805,-0.3135 0.4473,0 0.8278,0.2248 1.1464,0.6744 0.2293,0.3373 0.4249,0.9289 0.5814,1.781 0.1567,0.8461 0.2406,1.7336 0.2406,2.6566 0,1.8283 -0.2684,3.325 -0.8053,4.4906 -0.2962,0.6392 -0.7435,0.9528 -1.3422,0.9528 -0.3745,0 -0.6316,-0.1007 -0.7716,-0.3019 -0.1397,-0.201 -0.2514,-0.6211 -0.3297,-1.2544 -0.1624,-1.3076 -0.8835,-1.9584 -2.1583,-1.9584 -0.4921,0 -0.828,0.1599 -1.0068,0.4912 -0.1843,0.3314 -0.2739,0.9408 -0.2739,1.8281 0,0.5445 0.0392,1.2486 0.1061,2.1064 0.0728,0.864 0.1457,1.4318 0.2239,1.7099 0.0836,0.3432 0.3577,0.5859 0.8107,0.716 0.4527,0.1361 1.2078,0.2013 2.2703,0.2013 1.6384,0 2.8686,-0.2248 3.7017,-0.6687 0.8275,-0.4437 1.5041,-1.2484 2.0299,-2.42 0.3076,-0.6684 0.5814,-1.1182 0.8275,-1.349 0.246,-0.2307 0.5646,-0.3489 0.9561,-0.3489 0.4586,0 0.8388,0.2129 1.1406,0.633 0.3019,0.426 0.4474,0.9527 0.4474,1.5857 0,0.6922 -0.1676,1.5618 -0.5029,2.6033 -0.3413,1.0414 -0.7552,1.9644 -1.2473,2.7748 -0.2514,0.3906 -0.4586,0.6509 -0.6207,0.7869 -0.1676,0.1304 -0.3745,0.1953 -0.6262,0.2013 -0.2069,-0.006 -0.5032,-0.0354 -0.9003,-0.1066 -0.6987,-0.1361 -1.6328,-0.2248 -2.8015,-0.2602 l -13.8897,0 c -0.5593,0 -0.9896,-0.1301 -1.2972,-0.3906 -0.3019,-0.2602 -0.4586,-0.6271 -0.4586,-1.1004 0,-0.3374 0.0672,-0.5797 0.2012,-0.7277 0.1287,-0.148 0.4306,-0.3433 0.9003,-0.574 0.3243,-0.148 0.5703,-0.3314 0.7271,-0.5502 0.1565,-0.2248 0.2795,-0.5443 0.3688,-0.9703 0.358,-1.7456 0.5425,-4.1003 0.5425,-7.0588 0,-4.4612 -0.2627,-7.2715 -0.7883,-8.443 -0.1066,-0.2308 -0.2293,-0.3907 -0.358,-0.4853 -0.1344,-0.0888 -0.4082,-0.201 -0.822,-0.3254 -0.6205,-0.201 -0.9338,-0.639 -0.9338,-1.3193 0,-0.3727 0.1063,-0.6982 0.3133,-0.9881 0.2066,-0.29 0.4807,-0.4794 0.8161,-0.5741 0.4252,-0.1006 1.2529,-0.1536 2.4772,-0.1536 z m 30.3241,7.5733 0,7.958 c 0,1.7926 0.1452,2.9463 0.4417,3.4671 0.3634,0.6094 1.1182,0.917 2.2759,0.917 1.2467,0 2.2309,-0.2897 2.9526,-0.8637 0.7211,-0.5797 1.2189,-1.4792 1.5038,-2.704 0.1624,-0.7515 0.5368,-1.1302 1.1128,-1.1302 0.5817,0 1.0511,0.2781 1.4205,0.8226 0.3634,0.5502 0.5476,1.2663 0.5476,2.1419 0,1.4318 -0.5028,2.9642 -1.5094,4.5972 -0.3132,0.5148 -0.5927,0.8697 -0.8331,1.065 -0.2407,0.1893 -0.5312,0.284 -0.8668,0.284 l -3.6403,-0.4674 -11.4463,0 c -0.7549,0 -1.2861,-0.0947 -1.5936,-0.2781 -0.4473,-0.2662 -0.671,-0.6627 -0.671,-1.1951 0,-0.3254 0.0726,-0.5621 0.2237,-0.722 0.1454,-0.1539 0.5031,-0.3787 1.0734,-0.6627 0.6208,-0.3135 1.0177,-0.7512 1.1968,-1.3192 0.1398,-0.4734 0.2123,-1.8579 0.2123,-4.1417 0,-1.065 -0.0277,-2.5974 -0.0839,-4.5973 -0.0555,-1.917 -0.0893,-3.3607 -0.1003,-4.331 0,-0.923 -0.0672,-1.5563 -0.2016,-1.8992 -0.1397,-0.3433 -0.4249,-0.586 -0.8608,-0.7339 -0.7215,-0.2662 -1.1798,-0.4791 -1.3757,-0.6449 -0.3523,-0.29 -0.5255,-0.6154 -0.5255,-0.9882 0,-0.8402 0.6596,-1.485 1.9851,-1.9227 1.1236,-0.3787 2.628,-0.574 4.5178,-0.574 2.1195,0 3.7018,0.1182 4.7532,0.3492 1.3529,0.3135 2.0298,0.9346 2.0298,1.8694 0,0.3847 -0.0895,0.6687 -0.2684,0.8521 -0.1791,0.1834 -0.6208,0.432 -1.3198,0.7456 -0.4139,0.1953 -0.6766,0.5326 -0.7883,1.0057 -0.1063,0.4734 -0.1622,1.5089 -0.1622,3.1005 z m 17.5635,16.0875 -1.1798,0 c -0.6879,0 -1.4595,0.0354 -2.3096,0.1066 -0.5366,0.0414 -0.9057,0.0649 -1.1124,0.0649 -0.7327,0 -1.3311,-0.1775 -1.7898,-0.5383 -0.4583,-0.3549 -0.6876,-0.8223 -0.6876,-1.4023 0,-0.4023 0.1009,-0.716 0.3021,-0.9408 0.2013,-0.2308 0.5366,-0.4082 0.9953,-0.5502 0.4362,-0.1126 0.7268,-0.3016 0.8833,-0.5622 0.151,-0.2602 0.2741,-0.763 0.358,-1.5145 0.0895,-0.87 0.1678,-2.556 0.2406,-5.0647 0.0669,-2.5089 0.106,-4.9997 0.106,-7.4729 0,-0.9703 -0.0725,-1.6152 -0.2126,-1.9406 -0.1454,-0.3195 -0.475,-0.58 -1.0006,-0.775 -0.7551,-0.3019 -1.1296,-0.8167 -1.1296,-1.5443 0,-0.5681 0.2574,-1.012 0.7773,-1.3255 0.5198,-0.3195 1.2413,-0.4791 2.1696,-0.4791 0.3076,0 0.6653,0.006 1.0848,0.0176 0.917,0.0354 1.5823,0.0533 1.9962,0.0533 1.5599,0 3.327,-0.0533 5.2897,-0.1599 0.4139,-0.0176 0.9338,-0.0295 1.5602,-0.0295 2.4993,0 4.4734,0.296 5.9273,0.8995 2.1639,0.8991 3.791,2.4139 4.8815,4.5379 0.9728,1.8757 1.4596,4.1063 1.4596,6.6918 0,1.3076 -0.1792,2.6152 -0.5426,3.9288 -0.358,1.3136 -0.8444,2.4494 -1.4596,3.4081 -1.2636,1.9406 -3.0138,3.3015 -5.2395,4.0884 -1.3082,0.4615 -2.7063,0.6922 -4.1936,0.6922 l -1.9851,-0.0652 -1.6996,-0.0532 c -1.3255,-0.0474 -2.4886,-0.0709 -3.4895,-0.0709 z m 3.439,-18.7914 0,13.4189 c 0,0.7279 0.1451,1.2427 0.4416,1.5502 0.2965,0.3079 0.7886,0.4615 1.4763,0.4615 3.1873,0 4.7806,-2.5679 4.7806,-7.6975 0,-2.834 -0.3687,-5.0292 -1.1123,-6.5854 -0.8166,-1.7218 -2.209,-2.5855 -4.1604,-2.5855 -0.5258,0 -0.8946,0.1123 -1.1069,0.3314 -0.2129,0.2188 -0.3189,0.5856 -0.3189,1.1064 z" />
        <g
           id="g28">
          <path
             id="path30"
             style="fill:#1b1918;fill-rule:evenodd"
             d="m 195.9248,349.9642 c 0.5782,0 1.3373,0.1939 2.275,0.5774 0.1123,0.0465 0.2016,0.0698 0.2705,0.0698 0.0547,0 0.2245,-0.0698 0.5034,-0.2055 0.0921,-0.0465 0.1868,-0.0658 0.2877,-0.0658 0.3767,0 0.7736,0.3988 1.1906,1.2008 0.4201,0.8019 0.6301,1.565 0.6301,2.2932 0,0.4221 -0.095,0.7823 -0.282,1.0729 -0.1897,0.2905 -0.417,0.4377 -0.6874,0.4377 -0.2243,0 -0.4085,-0.0618 -0.5494,-0.182 -0.138,-0.1239 -0.4487,-0.4802 -0.9264,-1.0806 -0.6729,-0.8444 -1.3373,-1.2708 -1.9873,-1.2708 -0.3164,0 -0.5667,0.1046 -0.7535,0.3062 -0.1899,0.2052 -0.2849,0.4725 -0.2849,0.8056 0,0.6585 0.4315,1.1543 1.2915,1.4876 1.1619,0.4609 1.9069,0.798 2.232,1.0108 1.4324,0.9375 2.1487,2.3205 2.1487,4.1409 0,1.6115 -0.489,2.9285 -1.467,3.9512 -0.998,1.042 -2.3068,1.565 -3.9177,1.565 -0.7189,0 -1.4783,-0.1162 -2.2751,-0.345 -0.7965,-0.2324 -1.3748,-0.5034 -1.7286,-0.8132 -0.2676,-0.2404 -0.5119,-0.7671 -0.7276,-1.5806 -0.2157,-0.8133 -0.3252,-1.6075 -0.3252,-2.3783 0,-0.3719 0.0576,-0.6508 0.1698,-0.8405 0.1409,-0.244 0.3164,-0.3642 0.529,-0.3642 0.216,0 0.4204,0.1471 0.6157,0.4416 0.1179,0.1664 0.3971,0.701 0.8342,1.6036 0.2072,0.4223 0.5377,0.7747 0.9896,1.0536 0.4544,0.279 0.9201,0.4184 1.4034,0.4184 0.4173,0 0.7537,-0.1006 1.0125,-0.3098 0.2588,-0.2092 0.3884,-0.4765 0.3884,-0.8019 0,-0.3022 -0.1035,-0.5616 -0.3047,-0.7824 -0.2016,-0.2171 -0.5295,-0.4224 -0.9868,-0.612 -0.8025,-0.341 -1.4153,-0.6508 -1.8351,-0.9374 -0.423,-0.2829 -0.817,-0.6392 -1.1792,-1.0732 -0.889,-1.0573 -1.332,-2.2621 -1.332,-3.6062 0,-0.6662 0.1153,-1.317 0.3452,-1.9483 0.2302,-0.6316 0.5553,-1.1778 0.978,-1.6387 0.9433,-1.0653 2.0942,-1.5999 3.4546,-1.5999 z m 7.7862,0.3178 4.3287,0 c 0.8774,0 1.516,-0.0233 1.9185,-0.0737 0.4028,-0.0502 0.794,-0.1511 1.1764,-0.3022 0.1182,-0.0425 0.2101,-0.0658 0.2761,-0.0658 0.2934,0 0.5525,0.2092 0.7767,0.6353 0.3713,0.6897 0.555,1.5185 0.555,2.4948 0,0.4918 -0.0776,0.8793 -0.2299,1.1659 -0.1553,0.2826 -0.3682,0.422 -0.6358,0.422 -0.1868,0 -0.3308,-0.0501 -0.434,-0.1511 -0.1037,-0.1006 -0.2446,-0.333 -0.4172,-0.6854 -0.2475,-0.5074 -0.561,-0.8484 -0.9406,-1.0187 -0.3795,-0.1707 -1.0012,-0.2557 -1.8669,-0.2557 -0.6471,0 -1.0383,0.1587 -1.1792,0.4685 -0.0748,0.1667 -0.1179,0.3875 -0.1321,0.6701 -0.0116,0.279 -0.0204,0.9919 -0.0204,2.1422 0,0.4532 0.0576,0.7361 0.1698,0.8444 0.1123,0.1126 0.4057,0.1667 0.883,0.1667 0.2359,0 0.4085,-0.0658 0.5148,-0.1976 0.1066,-0.1355 0.1755,-0.3719 0.2015,-0.7089 0.04,-0.4417 0.0805,-0.7399 0.1236,-0.9026 0.0403,-0.1627 0.1179,-0.3058 0.2302,-0.426 0.1179,-0.1355 0.256,-0.2052 0.4141,-0.2052 0.2302,0 0.4258,0.1471 0.5896,0.4416 0.118,0.2208 0.2189,0.608 0.2991,1.1659 0.0808,0.5539 0.1239,1.135 0.1239,1.739 0,1.1971 -0.1381,2.1771 -0.4142,2.9401 -0.1525,0.4184 -0.3826,0.6237 -0.6905,0.6237 -0.1925,0 -0.3251,-0.0658 -0.3968,-0.1973 -0.072,-0.1318 -0.1293,-0.4068 -0.1698,-0.8215 -0.0834,-0.8561 -0.4544,-1.2821 -1.1101,-1.2821 -0.2531,0 -0.4257,0.1046 -0.5179,0.3217 -0.0949,0.2169 -0.1409,0.6157 -0.1409,1.1968 0,0.3563 0.0202,0.8172 0.0548,1.3791 0.0371,0.5655 0.0745,0.9374 0.1148,1.1194 0.043,0.2247 0.1842,0.3835 0.4172,0.4688 0.233,0.089 0.6214,0.1315 1.1679,0.1315 0.8427,0 1.4754,-0.1471 1.904,-0.4376 0.4258,-0.2906 0.7736,-0.8173 1.044,-1.5843 0.1582,-0.4377 0.2994,-0.7322 0.4258,-0.8833 0.1264,-0.1511 0.2905,-0.2285 0.4918,-0.2285 0.2358,0 0.4314,0.1395 0.5868,0.4145 0.1553,0.2789 0.2301,0.6236 0.2301,1.0383 0,0.453 -0.0861,1.0224 -0.2588,1.7042 -0.1757,0.6817 -0.3883,1.2861 -0.6414,1.8167 -0.1293,0.2557 -0.2359,0.426 -0.3192,0.5153 -0.0865,0.0851 -0.1928,0.1279 -0.3223,0.1316 -0.1063,-0.004 -0.2588,-0.0233 -0.4632,-0.0698 -0.3594,-0.089 -0.8399,-0.1471 -1.4409,-0.1703 l -7.1447,0 c -0.2877,0 -0.5094,-0.0854 -0.6675,-0.2557 -0.1554,-0.1704 -0.2359,-0.4105 -0.2359,-0.7206 0,-0.2208 0.0346,-0.3795 0.1038,-0.4762 0.066,-0.0969 0.2214,-0.2248 0.4629,-0.3759 0.1666,-0.0969 0.2934,-0.2168 0.3739,-0.3603 0.0807,-0.1471 0.144,-0.3563 0.1899,-0.6352 0.1842,-1.1426 0.2792,-2.6844 0.2792,-4.621 0,-2.9209 -0.1352,-4.7608 -0.4056,-5.5279 -0.0548,-0.1511 -0.118,-0.2557 -0.1843,-0.3175 -0.0692,-0.0581 -0.2098,-0.1318 -0.4226,-0.2131 -0.3195,-0.1316 -0.4805,-0.4184 -0.4805,-0.8637 0,-0.2441 0.0547,-0.4573 0.161,-0.6469 0.1063,-0.1899 0.2475,-0.3138 0.4201,-0.3759 0.2185,-0.0657 0.6443,-0.1006 1.2742,-0.1006 z m 16.6022,-0.3178 c 0.8198,0 1.6106,0.2404 2.376,0.7246 0.3594,0.2284 0.6097,0.3407 0.7506,0.3407 0.1006,0 0.2616,-0.0309 0.4862,-0.1006 0.0745,-0.0233 0.1553,-0.0349 0.2443,-0.0349 0.2934,0 0.5494,0.182 0.7682,0.5462 0.5406,0.8754 0.8081,1.9678 0.8081,3.2692 0,0.9142 -0.233,1.5843 -0.699,2.0067 -0.2531,0.2284 -0.5352,0.3407 -0.8515,0.3407 -0.2846,0 -0.5176,-0.0814 -0.699,-0.2478 -0.1783,-0.1666 -0.3535,-0.4648 -0.5233,-0.8872 -0.2415,-0.5964 -0.4374,-1.0264 -0.5896,-1.2898 -0.1497,-0.2596 -0.3368,-0.4957 -0.555,-0.7089 -0.5437,-0.5114 -1.116,-0.7708 -1.7116,-0.7708 -0.5783,0 -1.0383,0.2827 -1.3779,0.8445 -0.3393,0.5655 -0.5088,1.3209 -0.5088,2.266 0,1.3017 0.2443,2.4908 0.7333,3.5753 0.6616,1.4449 1.6106,2.1654 2.8477,2.1654 0.4544,0 0.9059,-0.1009 1.3515,-0.3061 0.4488,-0.2052 0.794,-0.4686 1.0415,-0.794 0.2126,-0.2713 0.3883,-0.4068 0.5233,-0.4068 0.1955,0 0.3656,0.1202 0.5062,0.368 0.1381,0.244 0.2101,0.5422 0.2101,0.8909 0,0.4377 -0.0978,0.9298 -0.2962,1.476 -0.1956,0.5423 -0.4315,0.9723 -0.7076,1.2821 -0.1179,0.1278 -0.3625,0.2401 -0.7336,0.3407 -0.2126,0.0505 -0.4975,0.19 -0.8512,0.4184 -0.8314,0.5386 -1.6943,0.8059 -2.5946,0.8059 -0.9377,0 -1.8725,-0.2829 -2.8071,-0.8524 -1.0817,-0.6585 -1.9386,-1.6656 -2.5688,-3.0291 -0.6182,-1.3246 -0.9261,-2.7076 -0.9261,-4.1524 0,-1.6813 0.3856,-3.2111 1.1622,-4.5981 0.673,-1.2008 1.5531,-2.1186 2.6374,-2.7578 0.8254,-0.4842 1.677,-0.7246 2.5543,-0.7246 z m 18.3509,5.9925 0,2.7697 c 0,1.6696 -0.0921,2.8548 -0.2789,3.5521 -0.3971,1.4681 -1.2742,2.5293 -2.6291,3.1878 -0.8195,0.4068 -1.7459,0.6123 -2.7786,0.6123 -1.8034,0 -3.2473,-0.5774 -4.3316,-1.7354 -0.5292,-0.5694 -0.8946,-1.2279 -1.0959,-1.9757 -0.2015,-0.7475 -0.305,-1.832 -0.305,-3.246 0,-0.5502 0.0145,-1.4604 0.0431,-2.7232 0.0173,-0.8909 0.0261,-1.4834 0.0261,-1.7702 0,-0.6273 -0.0346,-1.0613 -0.1066,-1.3054 -0.0691,-0.2401 -0.2214,-0.4686 -0.4572,-0.6817 -0.3711,-0.3254 -0.5579,-0.6857 -0.5579,-1.0885 0,-0.2943 0.095,-0.5539 0.2818,-0.7824 0.1899,-0.2285 0.4371,-0.3835 0.7478,-0.4649 0.6154,-0.1666 1.3462,-0.2517 2.1889,-0.2517 0.9292,0 1.6968,0.0967 2.3097,0.2866 0.6012,0.1783 0.9031,0.5927 0.9031,1.2356 0,0.3178 -0.0893,0.5695 -0.2617,0.7594 -0.0402,0.0465 -0.21,0.1624 -0.5062,0.3524 -0.1814,0.1046 -0.3022,0.2982 -0.3654,0.5771 -0.0663,0.2829 -0.0978,0.7438 -0.0978,1.3867 0,0.6585 -0.023,2.0801 -0.0689,4.265 -0.0261,1.3014 0.233,2.293 0.7852,2.975 0.4487,0.5615 1.0267,0.8404 1.7345,0.8404 0.4513,0 0.8569,-0.1122 1.2223,-0.337 0.3654,-0.2208 0.6443,-0.5267 0.834,-0.9102 0.1528,-0.2985 0.2562,-0.6276 0.3138,-0.9879 0.0547,-0.3639 0.0833,-0.86 0.0833,-1.4873 l 0,-2.4985 c -0.0286,-1.9136 -0.0692,-3.033 -0.1236,-3.3624 -0.0519,-0.3291 -0.233,-0.5888 -0.5437,-0.7784 -0.2905,-0.1743 -0.4889,-0.3334 -0.5981,-0.4765 -0.1066,-0.1435 -0.1584,-0.3218 -0.1584,-0.5346 0,-0.4533 0.2015,-0.7824 0.6012,-0.9916 0.4025,-0.2092 1.0468,-0.3138 1.9358,-0.3138 0.8688,0 1.5015,0.1046 1.8898,0.3059 0.3909,0.2055 0.5865,0.5306 0.5865,0.9762 0,0.2208 -0.0346,0.3835 -0.1006,0.4881 -0.0689,0.1083 -0.2444,0.271 -0.5321,0.4882 -0.2962,0.2284 -0.466,0.4725 -0.5091,0.7319 -0.0431,0.2633 -0.0691,1.2319 -0.0805,2.9129 z m 7.3058,3.3003 c -0.2126,0 -0.3479,0.089 -0.4082,0.2634 -0.0576,0.1743 -0.0893,0.5774 -0.0893,1.2126 0,0.9607 0.0462,1.7122 0.1352,2.2465 0.0286,0.1511 0.072,0.2713 0.1267,0.3526 0.0573,0.0853 0.1638,0.186 0.322,0.3059 0.3365,0.252 0.5034,0.5811 0.5034,0.9879 0,0.4997 -0.233,0.8521 -0.7018,1.0612 -0.4689,0.2092 -1.2628,0.3138 -2.3817,0.3138 -2.0795,0 -3.1178,-0.5306 -3.1178,-1.5919 0,-0.1783 0.0315,-0.3254 0.0918,-0.434 0.0632,-0.1122 0.2044,-0.2633 0.423,-0.4609 0.2474,-0.2208 0.4141,-0.4802 0.5003,-0.7784 0.0864,-0.2985 0.1468,-0.8135 0.1814,-1.5497 0.0286,-0.5343 0.0431,-2.4596 0.0431,-5.7753 0,-1.0499 -0.0403,-1.7665 -0.1179,-2.1461 -0.0805,-0.3756 -0.2472,-0.6508 -0.5063,-0.8252 -0.2472,-0.1587 -0.4141,-0.3058 -0.4975,-0.4376 -0.0833,-0.1316 -0.1264,-0.3059 -0.1264,-0.5191 0,-0.2789 0.0802,-0.523 0.2412,-0.7282 0.1585,-0.2092 0.3827,-0.3639 0.6701,-0.4609 0.2418,-0.0853 0.5726,-0.1239 0.9927,-0.1239 0.1868,0 0.65,0.0349 1.3921,0.1123 0.1381,0.0156 0.3626,0.0232 0.6642,0.0232 0.5065,0 1.1795,-0.0465 2.0222,-0.1355 0.5352,-0.0544 0.9088,-0.0813 1.122,-0.0813 1.2021,0 2.1974,0.3912 2.9826,1.1698 0.7075,0.705 1.0613,1.6773 1.0613,2.9282 0,0.6937 -0.1236,1.3289 -0.3711,1.8981 -0.2472,0.5735 -0.5868,1.0035 -1.0182,1.2901 -0.1811,0.1201 -0.2704,0.2633 -0.2704,0.43 0,0.2208 0.138,0.3988 0.4144,0.5346 0.5896,0.2866 1.021,0.7242 1.2971,1.3053 0.2733,0.5809 0.4717,1.4758 0.5896,2.6765 0.0488,0.4998 0.1239,0.8252 0.2186,0.9723 0.095,0.1474 0.3163,0.2905 0.6644,0.426 0.1095,0.0428 0.1985,0.1395 0.2705,0.2869 0.0748,0.1511 0.1091,0.3138 0.1091,0.4958 0,0.2324 -0.066,0.4686 -0.201,0.7089 -0.1355,0.2362 -0.3107,0.4261 -0.5238,0.5616 -0.4717,0.2945 -1.116,0.4416 -1.9386,0.4416 -1.0931,0 -1.878,-0.3875 -2.35,-1.1698 -0.2128,-0.3447 -0.394,-0.7864 -0.5436,-1.3133 -0.1497,-0.5307 -0.3249,-1.3556 -0.5264,-2.4753 -0.1293,-0.7202 -0.2934,-1.224 -0.4916,-1.5222 -0.2015,-0.2945 -0.4864,-0.4532 -0.8574,-0.4765 z m -0.489,-5.7872 -0.0919,2.6459 c 0,0.0232 0,0.0541 0,0.1006 0,0.2713 0.029,0.4533 0.0893,0.5463 0.0573,0.089 0.1783,0.1354 0.3566,0.1354 0.4947,0 0.8544,-0.1703 1.0783,-0.515 0.2274,-0.345 0.3396,-0.8949 0.3396,-1.654 0,-1.4604 -0.3852,-2.1887 -1.1562,-2.1887 -0.2186,0 -0.3739,0.0698 -0.4632,0.2053 -0.089,0.1355 -0.1409,0.3758 -0.1525,0.7242 z m 11.9829,-3.4279 c 0.6415,0 1.2455,0.0774 1.8122,0.2285 0.765,0.2052 1.1446,0.6392 1.1446,1.3053 0,0.2208 -0.0374,0.3835 -0.112,0.4921 -0.0748,0.1123 -0.2676,0.271 -0.5782,0.4842 -0.2591,0.1743 -0.4286,0.5539 -0.5091,1.1466 -0.0805,0.5887 -0.1211,1.739 -0.1211,3.4475 0,2.8896 0.0519,4.6791 0.1585,5.3688 0.0402,0.2208 0.1006,0.3872 0.1811,0.5074 0.0805,0.1162 0.2245,0.2441 0.4255,0.3796 0.3713,0.2245 0.5553,0.5538 0.5553,0.9878 0,0.6041 -0.3421,1.0185 -1.027,1.2473 -0.7418,0.2401 -1.6481,0.3639 -2.721,0.3639 -1.832,0 -2.7467,-0.4725 -2.7467,-1.4099 0,-0.3407 0.1783,-0.6585 0.5377,-0.953 0.2764,-0.2245 0.4374,-0.5383 0.489,-0.9295 0.1065,-0.8637 0.1613,-2.6921 0.1613,-5.4927 0,-1.9369 -0.0749,-3.1765 -0.2186,-3.7227 -0.0808,-0.3099 -0.2676,-0.5888 -0.5666,-0.8405 -0.2302,-0.2015 -0.3856,-0.3719 -0.4632,-0.5114 -0.0777,-0.1355 -0.1179,-0.3098 -0.1179,-0.519 0,-0.3254 0.1179,-0.5848 0.3509,-0.7787 0.233,-0.1936 0.6443,-0.3639 1.2339,-0.515 0.7019,-0.1899 1.4122,-0.2866 2.1314,-0.2866 z m 7.1274,0.2401 4.4411,0 c 0.4773,-0.0233 0.9147,-0.1086 1.3059,-0.2597 0.1698,-0.0618 0.3192,-0.0929 0.4487,-0.0929 0.4544,0 0.8974,0.4532 1.3258,1.3637 0.4286,0.9062 0.6443,1.84 0.6443,2.8006 0,0.6585 -0.1494,1.1387 -0.4456,1.4409 -0.2245,0.2285 -0.4947,0.3407 -0.8085,0.3407 -0.299,0 -0.5578,-0.1122 -0.7764,-0.3331 -0.2185,-0.2245 -0.4345,-0.5924 -0.6502,-1.1077 -0.184,-0.4686 -0.3306,-0.7748 -0.4372,-0.9182 -0.1062,-0.1431 -0.2358,-0.2168 -0.388,-0.2168 -0.2072,0 -0.3569,0.1202 -0.4462,0.3526 -0.089,0.2361 -0.1349,0.6196 -0.1349,1.1582 l 0,6.3525 c 0,0.6508 0.0516,1.1273 0.1522,1.4218 0.1009,0.2943 0.2908,0.5191 0.5726,0.6818 0.3047,0.1703 0.5091,0.337 0.6185,0.4918 0.112,0.155 0.1667,0.3679 0.1667,0.6432 0,0.5422 -0.2761,0.9487 -0.8226,1.2123 -0.5465,0.2634 -1.3893,0.3952 -2.5254,0.3989 -1.3924,-0.004 -2.425,-0.1588 -3.1008,-0.4686 -0.5667,-0.2557 -0.8513,-0.6701 -0.8513,-1.2472 0,-0.3102 0.1035,-0.5502 0.3048,-0.7246 0.049,-0.0385 0.2503,-0.1315 0.5984,-0.2749 0.2128,-0.0814 0.3594,-0.2401 0.4427,-0.4765 0.0808,-0.2325 0.1469,-0.6857 0.1985,-1.3479 0.0433,-0.5927 0.0864,-1.5458 0.1267,-2.8667 0.0374,-1.3207 0.0575,-2.4636 0.0575,-3.4319 0,-0.6817 -0.0402,-1.1659 -0.1179,-1.4525 -0.0777,-0.2905 -0.2069,-0.434 -0.3884,-0.434 -0.2185,0 -0.4314,0.2132 -0.6386,0.6353 -0.3767,0.7747 -0.6874,1.2821 -0.9289,1.5341 -0.2846,0.2942 -0.5638,0.4414 -0.8343,0.4414 -0.3018,0 -0.5521,-0.1509 -0.7477,-0.461 -0.1985,-0.3058 -0.2963,-0.697 -0.2963,-1.1735 0,-0.4689 0.0777,-0.9839 0.2359,-1.5494 0.1582,-0.5618 0.3682,-1.0809 0.6327,-1.5574 0.4257,-0.7747 0.8487,-1.1582 1.2628,-1.1582 0.1123,0 0.2415,0.0232 0.3884,0.066 0.3021,0.0851 0.5521,0.1395 0.7449,0.1704 0.1956,0.0309 0.417,0.0465 0.6701,0.0465 z m 12.0402,-0.2401 c 1.1018,0 1.9417,0.0813 2.52,0.2401 0.2644,0.0697 0.4773,0.2015 0.6355,0.4028 0.161,0.2015 0.2415,0.43 0.2415,0.6857 0,0.1976 -0.0632,0.3988 -0.1868,0.6004 -0.1786,0.3138 -0.2676,0.5346 -0.2676,0.6701 0,0.2749 0.1582,0.7089 0.4805,1.3053 0.2069,0.3875 0.4025,0.5811 0.5896,0.5811 0.1179,0 0.233,-0.0581 0.345,-0.1783 0.1122,-0.1162 0.2591,-0.3251 0.4374,-0.6273 0.2185,-0.3719 0.3279,-0.6664 0.3279,-0.8872 0,-0.1355 -0.0116,-0.2361 -0.0377,-0.3059 -0.0258,-0.0697 -0.1148,-0.2324 -0.273,-0.4881 -0.1122,-0.1743 -0.1697,-0.4068 -0.1697,-0.705 0,-0.8521 0.86,-1.2821 2.58,-1.2821 0.972,0 1.6022,0.0618 1.8956,0.182 0.1868,0.0774 0.3393,0.2208 0.46,0.434 0.1208,0.2089 0.1815,0.4376 0.1815,0.6777 0,0.3099 -0.072,0.5463 -0.2129,0.705 -0.1381,0.1588 -0.3824,0.2789 -0.7308,0.3643 -0.322,0.081 -0.5981,0.2477 -0.834,0.4918 -0.2358,0.248 -0.6703,0.8251 -1.2999,1.7314 -0.7625,1.1117 -1.2399,1.9292 -1.4267,2.4559 -0.1899,0.5267 -0.282,1.3133 -0.282,2.355 0,0.8794 0.0229,1.6929 0.0748,2.4407 0.0286,0.4609 0.0805,0.7823 0.161,0.9604 0.0777,0.1743 0.2418,0.3526 0.489,0.5269 0.4084,0.2866 0.6128,0.6469 0.6128,1.0769 0,1.0304 -1.1276,1.5454 -3.3857,1.5454 -0.9289,0 -1.8034,-0.1238 -2.6288,-0.3639 -0.6962,-0.2055 -1.0469,-0.6083 -1.0469,-1.2164 0,-0.4688 0.2158,-0.8056 0.6412,-1.0071 0.3195,-0.1511 0.5208,-0.3447 0.5981,-0.5811 0.1815,-0.523 0.2708,-1.7547 0.2708,-3.6992 0,-0.6044 -0.0462,-1.0769 -0.1353,-1.414 -0.0892,-0.337 -0.2877,-0.7707 -0.5898,-1.3093 -0.6356,-1.1117 -1.2887,-2.1149 -1.9645,-3.0058 -0.2905,-0.3872 -0.5723,-0.6469 -0.8427,-0.7864 -0.3798,-0.1859 -0.6126,-0.3254 -0.6902,-0.4184 -0.1582,-0.1819 -0.2359,-0.422 -0.2359,-0.7242 0,-0.5074 0.2846,-0.8754 0.8513,-1.0962 0.5666,-0.2248 1.5157,-0.337 2.8474,-0.337 z m 20.891,-0.0777 c 0.7365,0 1.4295,0.1395 2.0824,0.4184 0.2905,0.1318 0.4921,0.1939 0.5983,0.1939 0.112,0 0.3481,-0.0853 0.7076,-0.2596 0.1179,-0.0542 0.2387,-0.0814 0.3625,-0.0814 0.3133,0 0.6154,0.2517 0.9003,0.7515 0.4601,0.8019 0.6931,1.6772 0.6931,2.6302 0,0.6506 -0.1236,1.1775 -0.3682,1.5803 -0.2444,0.3992 -0.5667,0.6004 -0.9635,0.6004 -0.3277,0 -0.6472,-0.1587 -0.9607,-0.4765 -0.095,-0.1006 -0.3308,-0.453 -0.699,-1.0689 -0.6183,-1.0188 -1.3289,-1.5302 -2.1342,-1.5302 -0.7305,0 -1.3088,0.3603 -1.7402,1.0769 -0.4286,0.7206 -0.6443,1.6889 -0.6443,2.9052 0,1.8088 0.3424,3.3469 1.0298,4.6211 0.256,0.4612 0.5666,0.8291 0.9261,1.1041 0.3594,0.2749 0.7163,0.4144 1.0701,0.4144 0.2933,0 0.532,-0.1315 0.7191,-0.3912 0.1899,-0.2596 0.2846,-0.5964 0.2846,-1.0032 0,-0.3642 -0.0805,-0.6199 -0.2358,-0.771 -0.0633,-0.0618 -0.1208,-0.0966 -0.1727,-0.1083 -0.0547,-0.0116 -0.2157,-0.0195 -0.4858,-0.0195 -0.2418,0 -0.4431,-0.1046 -0.6013,-0.3099 -0.1612,-0.2092 -0.2415,-0.4725 -0.2415,-0.7903 0,-0.6273 0.3107,-1.0729 0.9261,-1.3402 0.6817,-0.2866 1.4638,-0.43 2.3528,-0.43 0.9493,0 1.7458,0.1318 2.393,0.3991 0.6128,0.2557 0.9178,0.7206 0.9178,1.3944 0,0.2713 -0.0691,0.5077 -0.2103,0.7089 -0.1409,0.2016 -0.322,0.3215 -0.5494,0.3563 -0.1953,0.0389 -0.322,0.097 -0.3823,0.1783 -0.0576,0.0774 -0.118,0.275 -0.1812,0.5848 -0.2418,1.2011 -0.7135,2.2082 -1.4153,3.0178 -0.483,0.5539 -1.067,0.9839 -1.7487,1.2937 -0.6817,0.3099 -1.4009,0.4649 -2.1515,0.4649 -1.2311,0 -2.3615,-0.3835 -3.3883,-1.1466 -1.0556,-0.7787 -1.8612,-1.8672 -2.4105,-3.2695 -0.4601,-1.1619 -0.6903,-2.4247 -0.6903,-3.7766 0,-1.3714 0.2733,-2.6728 0.8255,-3.9047 0.5839,-1.3246 1.4009,-2.3434 2.4505,-3.064 0.9179,-0.6352 1.9619,-0.953 3.1354,-0.953 z m 19.5764,5.9925 0,2.7697 c 0,1.6696 -0.0922,2.8548 -0.2792,3.5521 -0.3969,1.4681 -1.2739,2.5293 -2.6289,3.1878 -0.8195,0.4068 -1.7458,0.6123 -2.7785,0.6123 -1.8034,0 -3.2474,-0.5774 -4.3316,-1.7354 -0.5293,-0.5694 -0.8946,-1.2279 -1.0959,-1.9757 -0.2016,-0.7475 -0.305,-1.832 -0.305,-3.246 0,-0.5502 0.0144,-1.4604 0.0431,-2.7232 0.0173,-0.8909 0.0261,-1.4834 0.0261,-1.7702 0,-0.6273 -0.0346,-1.0613 -0.1066,-1.3054 -0.0692,-0.2401 -0.2214,-0.4686 -0.4573,-0.6817 -0.371,-0.3254 -0.5578,-0.6857 -0.5578,-1.0885 0,-0.2943 0.0947,-0.5539 0.2817,-0.7824 0.19,-0.2285 0.4371,-0.3835 0.7478,-0.4649 0.6154,-0.1666 1.3462,-0.2517 2.1889,-0.2517 0.929,0 1.6969,0.0967 2.3097,0.2866 0.6012,0.1783 0.9031,0.5927 0.9031,1.2356 0,0.3178 -0.0893,0.5695 -0.2619,0.7594 -0.04,0.0465 -0.2098,0.1624 -0.506,0.3524 -0.1814,0.1046 -0.3022,0.2982 -0.3654,0.5771 -0.0663,0.2829 -0.0978,0.7438 -0.0978,1.3867 0,0.6585 -0.0229,2.0801 -0.0691,4.265 -0.0258,1.3014 0.233,2.293 0.7855,2.975 0.4487,0.5615 1.0267,0.8404 1.7342,0.8404 0.4515,0 0.8572,-0.1122 1.2226,-0.337 0.3651,-0.2208 0.6443,-0.5267 0.8339,-0.9102 0.1528,-0.2985 0.2563,-0.6276 0.3138,-0.9879 0.0547,-0.3639 0.0834,-0.86 0.0834,-1.4873 l 0,-2.4985 c -0.0287,-1.9136 -0.0692,-3.033 -0.1236,-3.3624 -0.0519,-0.3291 -0.233,-0.5888 -0.5437,-0.7784 -0.2906,-0.1743 -0.489,-0.3334 -0.5984,-0.4765 -0.1063,-0.1435 -0.1582,-0.3218 -0.1582,-0.5346 0,-0.4533 0.2016,-0.7824 0.6012,-0.9916 0.4026,-0.2092 1.0469,-0.3138 1.9358,-0.3138 0.8686,0 1.5015,0.1046 1.8899,0.3059 0.3909,0.2055 0.5865,0.5306 0.5865,0.9762 0,0.2208 -0.0346,0.3835 -0.1007,0.4881 -0.0688,0.1083 -0.2443,0.271 -0.532,0.4882 -0.2962,0.2284 -0.466,0.4725 -0.5091,0.7319 -0.0434,0.2633 -0.0692,1.2319 -0.0805,2.9129 z m 11.7958,1.9757 1.5933,4.5941 c 0.1525,0.4221 0.2792,0.701 0.3799,0.8328 0.1006,0.1355 0.2559,0.2245 0.4632,0.2671 0.4053,0.0853 0.6066,0.3602 0.6066,0.8291 0,0.5539 -0.2472,0.949 -0.7419,1.1931 -0.4949,0.2401 -1.303,0.3603 -2.4278,0.364 -1.2682,-0.004 -2.2091,-0.0735 -2.8216,-0.2169 -0.2821,-0.0697 -0.5035,-0.2052 -0.6701,-0.4144 -0.167,-0.2092 -0.2475,-0.4609 -0.2475,-0.7554 0,-0.2285 0.0431,-0.4028 0.1295,-0.5267 0.0862,-0.1242 0.2475,-0.2404 0.4862,-0.3487 0.2616,-0.1202 0.394,-0.3254 0.394,-0.612 0,-0.5074 -0.2273,-0.8059 -0.6817,-0.8949 -0.489,-0.093 -1.1764,-0.1355 -2.0651,-0.1355 -0.748,0 -1.1936,0.0581 -1.3405,0.182 -0.0893,0.0737 -0.1669,0.2092 -0.2358,0.4068 -0.0664,0.1976 -0.1007,0.3872 -0.1007,0.5695 0,0.1627 0.023,0.271 0.072,0.3214 0.0488,0.0502 0.2041,0.1315 0.4686,0.2441 0.3424,0.1355 0.5119,0.4067 0.5119,0.8172 0,0.8986 -0.7996,1.3518 -2.4015,1.3518 -0.909,0 -1.5763,-0.085 -2.0049,-0.2517 -0.394,-0.1587 -0.5896,-0.5074 -0.5896,-1.042 0,-0.2361 0.0431,-0.4184 0.1295,-0.5462 0.0893,-0.1279 0.2444,-0.2478 0.4686,-0.3524 0.3654,-0.1743 0.6418,-0.4184 0.8314,-0.7322 0.1871,-0.3138 0.4547,-0.9839 0.8025,-2.0143 l 1.1908,-3.5056 c 0.4374,-1.286 0.7308,-2.2504 0.8802,-2.8896 0.1468,-0.6392 0.2245,-1.2628 0.2302,-1.8788 0.006,-0.6506 0.0343,-1.1001 0.089,-1.3555 0.0547,-0.252 0.1726,-0.4998 0.3566,-0.7438 0.3883,-0.527 0.8832,-0.7943 1.4845,-0.7943 0.5666,0 1.11,0.2985 1.6279,0.8989 0.7189,0.8172 1.7631,3.1957 3.1323,7.139 z m -5.8649,1.4292 1.654,0 c 0.3019,0 0.4544,-0.0929 0.4544,-0.2749 0,-0.2481 -0.21,-0.8601 -0.633,-1.836 -0.1896,-0.4456 -0.3362,-0.7478 -0.4371,-0.8989 -0.1034,-0.1511 -0.2097,-0.2245 -0.322,-0.2245 -0.2015,0 -0.371,0.2517 -0.5034,0.7591 -0.023,0.0698 -0.1063,0.3371 -0.2446,0.8056 -0.2359,0.7711 -0.3538,1.232 -0.3538,1.3831 0,0.1899 0.1267,0.2865 0.3855,0.2865 z" />
          <path
             id="path32"
             style="fill:#1b1918;fill-rule:evenodd"
             d="m 337.7852,359.257 c -0.2129,0 -0.3478,0.089 -0.4082,0.2634 -0.0576,0.1743 -0.0893,0.5774 -0.0893,1.2126 0,0.9607 0.0459,1.7122 0.1349,2.2465 0.0289,0.1511 0.072,0.2713 0.1267,0.3526 0.0576,0.0853 0.1641,0.186 0.3223,0.3059 0.3365,0.252 0.5035,0.5811 0.5035,0.9879 0,0.4997 -0.2331,0.8521 -0.7022,1.0612 -0.4686,0.2092 -1.2625,0.3138 -2.3814,0.3138 -2.0795,0 -3.1178,-0.5306 -3.1178,-1.5919 0,-0.1783 0.0315,-0.3254 0.0918,-0.434 0.0633,-0.1122 0.2041,-0.2633 0.423,-0.4609 0.2472,-0.2208 0.4141,-0.4802 0.5003,-0.7784 0.0862,-0.2985 0.1468,-0.8135 0.1811,-1.5497 0.0289,-0.5343 0.0434,-2.4596 0.0434,-5.7753 0,-1.0499 -0.0403,-1.7665 -0.1179,-2.1461 -0.0808,-0.3756 -0.2475,-0.6508 -0.5063,-0.8252 -0.2475,-0.1587 -0.4141,-0.3058 -0.4975,-0.4376 -0.0836,-0.1316 -0.1267,-0.3059 -0.1267,-0.5191 0,-0.2789 0.0805,-0.523 0.2415,-0.7282 0.1582,-0.2092 0.3827,-0.3639 0.6701,-0.4609 0.2418,-0.0853 0.5726,-0.1239 0.9924,-0.1239 0.1871,0 0.65,0.0349 1.3924,0.1123 0.1381,0.0156 0.3623,0.0232 0.6642,0.0232 0.5065,0 1.1795,-0.0465 2.0222,-0.1355 0.5349,-0.0544 0.9088,-0.0813 1.122,-0.0813 1.2021,0 2.1974,0.3912 2.9823,1.1698 0.7078,0.705 1.0616,1.6773 1.0616,2.9282 0,0.6937 -0.1239,1.3289 -0.3711,1.8981 -0.2472,0.5735 -0.5868,1.0035 -1.0182,1.2901 -0.1811,0.1201 -0.2704,0.2633 -0.2704,0.43 0,0.2208 0.138,0.3988 0.4141,0.5346 0.5896,0.2866 1.0214,0.7242 1.2974,1.3053 0.2733,0.5809 0.4717,1.4758 0.5897,2.6765 0.0487,0.4998 0.1235,0.8252 0.2185,0.9723 0.095,0.1474 0.3164,0.2905 0.6644,0.426 0.1095,0.0428 0.1985,0.1395 0.2705,0.2869 0.0745,0.1511 0.1091,0.3138 0.1091,0.4958 0,0.2324 -0.066,0.4686 -0.2013,0.7089 -0.1352,0.2362 -0.3106,0.4261 -0.5235,0.5616 -0.4717,0.2945 -1.116,0.4416 -1.9386,0.4416 -1.0931,0 -1.8783,-0.3875 -2.3499,-1.1698 -0.2129,-0.3447 -0.3941,-0.7864 -0.5437,-1.3133 -0.1497,-0.5307 -0.3249,-1.3556 -0.5264,-2.4753 -0.1296,-0.7202 -0.2934,-1.224 -0.4918,-1.5222 -0.2013,-0.2945 -0.4862,-0.4532 -0.8572,-0.4765 z m -0.489,-5.7872 -0.0919,2.6459 c 0,0.0232 0,0.0541 0,0.1006 0,0.2713 0.0287,0.4533 0.0891,0.5463 0.0575,0.089 0.1783,0.1354 0.3566,0.1354 0.4946,0 0.8543,-0.1703 1.0785,-0.515 0.2274,-0.345 0.3396,-0.8949 0.3396,-1.654 0,-1.4604 -0.3855,-2.1887 -1.1562,-2.1887 -0.2186,0 -0.3739,0.0698 -0.4632,0.2053 -0.089,0.1355 -0.1409,0.3758 -0.1525,0.7242 z m 11.9081,12.3027 -0.6069,0 c -0.3541,0 -0.7507,0.0232 -1.188,0.0697 -0.2761,0.0272 -0.4661,0.0425 -0.5724,0.0425 -0.377,0 -0.6845,-0.1162 -0.9207,-0.3523 -0.2355,-0.2325 -0.3534,-0.5386 -0.3534,-0.9182 0,-0.2633 0.0518,-0.4685 0.155,-0.6159 0.1038,-0.1511 0.2761,-0.2673 0.5122,-0.3603 0.2243,-0.0734 0.3739,-0.1973 0.4544,-0.368 0.0777,-0.1703 0.1412,-0.4997 0.1843,-0.9915 0.0459,-0.5695 0.0859,-1.6733 0.1236,-3.3157 0.0343,-1.6424 0.0547,-3.2732 0.0547,-4.8923 0,-0.6355 -0.0374,-1.0576 -0.1094,-1.2708 -0.0749,-0.2092 -0.2447,-0.3795 -0.5151,-0.5074 -0.388,-0.1976 -0.5808,-0.5346 -0.5808,-1.0108 0,-0.3719 0.1324,-0.6625 0.4,-0.8677 0.2673,-0.2092 0.6383,-0.3138 1.116,-0.3138 0.1579,0 0.3421,0.004 0.5578,0.0116 0.4717,0.0233 0.8141,0.0349 1.0267,0.0349 0.8028,0 1.7116,-0.0349 2.721,-0.1046 0.2132,-0.0116 0.4805,-0.0196 0.8028,-0.0196 1.2855,0 2.3009,0.1939 3.0486,0.5891 1.1132,0.5887 1.9503,1.5803 2.5113,2.971 0.5003,1.2279 0.7506,2.6881 0.7506,4.3809 0,0.8561 -0.0919,1.7121 -0.279,2.5722 -0.1842,0.8597 -0.4342,1.6035 -0.7509,2.2311 -0.6499,1.2705 -1.5499,2.1614 -2.6949,2.6765 -0.6732,0.3022 -1.3921,0.4532 -2.1574,0.4532 l -1.021,-0.0425 -0.8743,-0.0348 c -0.6817,-0.0309 -1.2801,-0.0465 -1.7948,-0.0465 z m 1.7688,-12.3027 0,8.7854 c 0,0.4765 0.0748,0.8136 0.2273,1.0148 0.1525,0.2016 0.4056,0.3022 0.7594,0.3022 1.6396,0 2.4593,-1.6809 2.4593,-5.0394 0,-1.8556 -0.1899,-3.2927 -0.5725,-4.3115 -0.4199,-1.1271 -1.1362,-1.6926 -2.1399,-1.6926 -0.2704,0 -0.4604,0.0734 -0.5695,0.2169 -0.1094,0.1434 -0.1641,0.3835 -0.1641,0.7242 z m 13.6338,-3.5056 c 0.5782,0 1.3374,0.1939 2.2751,0.5774 0.1122,0.0465 0.2015,0.0698 0.2704,0.0698 0.0547,0 0.2245,-0.0698 0.5034,-0.2055 0.0921,-0.0465 0.1868,-0.0658 0.2877,-0.0658 0.3768,0 0.7736,0.3988 1.1906,1.2008 0.4201,0.8019 0.6301,1.565 0.6301,2.2932 0,0.4221 -0.0949,0.7823 -0.2817,1.0729 -0.19,0.2905 -0.4173,0.4377 -0.6877,0.4377 -0.2242,0 -0.4085,-0.0618 -0.5494,-0.182 -0.138,-0.1239 -0.4487,-0.4802 -0.9263,-1.0806 -0.673,-0.8444 -1.3374,-1.2708 -1.9874,-1.2708 -0.3164,0 -0.5667,0.1046 -0.7535,0.3062 -0.1899,0.2052 -0.2848,0.4725 -0.2848,0.8056 0,0.6585 0.4314,1.1543 1.2914,1.4876 1.1619,0.4609 1.9069,0.798 2.232,1.0108 1.4326,0.9375 2.1487,2.3205 2.1487,4.1409 0,1.6115 -0.489,2.9285 -1.4669,3.9512 -0.9981,1.042 -2.3069,1.565 -3.9175,1.565 -0.7192,0 -1.4786,-0.1162 -2.2754,-0.345 -0.7965,-0.2324 -1.3748,-0.5034 -1.7286,-0.8132 -0.2676,-0.2404 -0.5119,-0.7671 -0.7276,-1.5806 -0.2157,-0.8133 -0.3252,-1.6075 -0.3252,-2.3783 0,-0.3719 0.0576,-0.6508 0.1698,-0.8405 0.1409,-0.244 0.3164,-0.3642 0.5293,-0.3642 0.2157,0 0.4201,0.1471 0.6157,0.4416 0.1176,0.1664 0.3968,0.701 0.8339,1.6036 0.2072,0.4223 0.5377,0.7747 0.9896,1.0536 0.4544,0.279 0.9201,0.4184 1.4034,0.4184 0.4173,0 0.7537,-0.1006 1.0126,-0.3098 0.2588,-0.2092 0.3883,-0.4765 0.3883,-0.8019 0,-0.3022 -0.1035,-0.5616 -0.3047,-0.7824 -0.2016,-0.2171 -0.5295,-0.4224 -0.9868,-0.612 -0.8025,-0.341 -1.415,-0.6508 -1.8351,-0.9374 -0.4229,-0.2829 -0.817,-0.6392 -1.1792,-1.0732 -0.8887,-1.0573 -1.3317,-2.2621 -1.3317,-3.6062 0,-0.6662 0.115,-1.317 0.3449,-1.9483 0.2302,-0.6316 0.5553,-1.1778 0.978,-1.6387 0.9434,-1.0653 2.0942,-1.5999 3.4546,-1.5999 z m 15.7739,5.2759 0,5.21 c 0,1.1739 0.0746,1.929 0.2271,2.27 0.1871,0.3989 0.5754,0.6004 1.1707,0.6004 0.6415,0 1.1477,-0.1899 1.5185,-0.5655 0.3711,-0.3796 0.627,-0.9683 0.7739,-1.7702 0.0836,-0.4921 0.2761,-0.7399 0.5726,-0.7399 0.299,0 0.5405,0.182 0.7304,0.5383 0.1869,0.3603 0.2818,0.8291 0.2818,1.4023 0,0.9374 -0.2588,1.9406 -0.7767,3.0098 -0.161,0.3371 -0.3047,0.5695 -0.4286,0.6974 -0.1233,0.1238 -0.273,0.1859 -0.4456,0.1859 l -1.8726,-0.3061 -5.8878,0 c -0.3883,0 -0.6613,-0.0621 -0.8198,-0.182 -0.2299,-0.1743 -0.3452,-0.434 -0.3452,-0.7827 0,-0.2128 0.0377,-0.3679 0.1153,-0.4725 0.0746,-0.1006 0.2588,-0.2477 0.5519,-0.4337 0.3195,-0.2055 0.5236,-0.4921 0.6157,-0.864 0.0717,-0.3098 0.1094,-1.2161 0.1094,-2.7113 0,-0.6974 -0.0144,-1.7005 -0.0433,-3.0099 -0.0287,-1.2551 -0.0459,-2.2002 -0.0516,-2.8355 0,-0.6043 -0.0346,-1.0187 -0.1038,-1.2432 -0.0717,-0.2248 -0.2182,-0.3836 -0.4427,-0.4805 -0.3711,-0.1743 -0.6069,-0.3138 -0.7076,-0.4221 -0.1814,-0.1899 -0.2704,-0.4031 -0.2704,-0.6471 0,-0.55 0.3393,-0.9723 1.021,-1.2589 0.578,-0.2477 1.3519,-0.3756 2.3242,-0.3756 1.0899,0 1.904,0.0774 2.4449,0.2285 0.6961,0.2052 1.044,0.612 1.044,1.224 0,0.2517 -0.046,0.4377 -0.1381,0.5578 -0.0918,0.1202 -0.3192,0.2829 -0.6789,0.4882 -0.2126,0.1278 -0.3478,0.3486 -0.4053,0.6585 -0.0548,0.3098 -0.0834,0.9875 -0.0834,2.0296 z m 10.9213,0 0,5.21 c 0,1.1739 0.0749,1.929 0.2274,2.27 0.1871,0.3989 0.5754,0.6004 1.1704,0.6004 0.6418,0 1.148,-0.1899 1.5188,-0.5655 0.3711,-0.3796 0.627,-0.9683 0.7739,-1.7702 0.0833,-0.4921 0.2761,-0.7399 0.5723,-0.7399 0.299,0 0.5408,0.182 0.7308,0.5383 0.1868,0.3603 0.2817,0.8291 0.2817,1.4023 0,0.9374 -0.2588,1.9406 -0.7767,3.0098 -0.161,0.3371 -0.3047,0.5695 -0.4286,0.6974 -0.1236,0.1238 -0.2732,0.1859 -0.4459,0.1859 l -1.8722,-0.3061 -5.8882,0 c -0.388,0 -0.6613,-0.0621 -0.8195,-0.182 -0.2301,-0.1743 -0.3452,-0.434 -0.3452,-0.7827 0,-0.2128 0.0374,-0.3679 0.1151,-0.4725 0.0748,-0.1006 0.259,-0.2477 0.5521,-0.4337 0.3192,-0.2055 0.5236,-0.4921 0.6157,-0.864 0.0717,-0.3098 0.1092,-1.2161 0.1092,-2.7113 0,-0.6974 -0.0142,-1.7005 -0.0431,-3.0099 -0.0289,-1.2551 -0.0462,-2.2002 -0.0519,-2.8355 0,-0.6043 -0.0343,-1.0187 -0.1035,-1.2432 -0.0717,-0.2248 -0.2185,-0.3836 -0.4427,-0.4805 -0.3711,-0.1743 -0.6072,-0.3138 -0.7078,-0.4221 -0.1812,-0.1899 -0.2702,-0.4031 -0.2702,-0.6471 0,-0.55 0.3393,-0.9723 1.0211,-1.2589 0.5779,-0.2477 1.3518,-0.3756 2.3238,-0.3756 1.0902,0 1.9043,0.0774 2.4452,0.2285 0.6962,0.2052 1.044,0.612 1.044,1.224 0,0.2517 -0.0462,0.4377 -0.1381,0.5578 -0.0921,0.1202 -0.3194,0.2829 -0.6789,0.4882 -0.2129,0.1278 -0.3478,0.3486 -0.4056,0.6585 -0.0544,0.3098 -0.0834,0.9875 -0.0834,2.0296 z m 6.9092,5.1868 0,-5.9692 c 0,-0.7707 -0.0377,-1.2628 -0.1179,-1.4681 -0.0777,-0.2092 -0.2906,-0.3795 -0.6387,-0.5074 -0.5062,-0.1936 -0.7591,-0.5346 -0.7591,-1.0187 0,-0.341 0.1063,-0.6044 0.3189,-0.7864 0.2157,-0.1783 0.5236,-0.2712 0.9292,-0.2712 0.1352,0 0.4689,0.0116 1.0009,0.0348 l 0.5063,0 c 0.932,-0.008 1.4785,-0.0153 1.6396,-0.0269 0.161,-0.0116 0.7304,-0.0777 1.7141,-0.2015 0.3254,-0.0426 0.6244,-0.0658 0.8946,-0.0658 0.9204,0 1.7405,0.2517 2.4593,0.7591 1.2541,0.8793 1.8783,2.27 1.8783,4.1757 0,1.5458 -0.4371,2.7814 -1.3145,3.7109 -0.8257,0.8716 -1.8235,1.3056 -2.9999,1.3056 -0.2965,0 -0.6616,-0.0272 -1.093,-0.0777 -0.2302,-0.0232 -0.3742,-0.0348 -0.4314,-0.0348 -0.1613,0 -0.2447,0.1241 -0.2447,0.3758 l 0,0.0658 0.0604,1.8632 c 0.0116,0.3603 0.0604,0.6313 0.1466,0.8096 0.0864,0.1783 0.2647,0.3603 0.5351,0.5499 0.3654,0.2636 0.5466,0.5542 0.5466,0.864 0,0.4765 -0.2674,0.8444 -0.8082,1.1001 -0.538,0.2557 -1.3031,0.3872 -2.2927,0.3872 -2.0766,0 -3.1178,-0.4801 -3.1178,-1.4448 0,-0.2245 0.0459,-0.3988 0.1352,-0.519 0.0921,-0.1202 0.3019,-0.2945 0.6327,-0.523 0.2016,-0.1431 0.3195,-0.3447 0.3538,-0.6004 0.0346,-0.2593 0.0575,-1.0885 0.0663,-2.4868 z m 3.8024,-7.41 0,3.8579 c 0,0.2945 0.0459,0.4725 0.144,0.5346 0.161,0.1046 0.3651,0.1588 0.6126,0.1588 0.371,0 0.6845,-0.1395 0.9377,-0.4221 0.3654,-0.3991 0.5465,-1.0732 0.5465,-2.0183 0,-0.9839 -0.2129,-1.6965 -0.6415,-2.1342 -0.2676,-0.2789 -0.5953,-0.4184 -0.9751,-0.4184 -0.4173,0 -0.6242,0.1471 -0.6242,0.4417 z" />
        </g>
      </g>
      <g
         id="g34">
        <path
           id="path36"
           style="fill:#1b1918;fill-rule:evenodd"
           d="m 206.8311,479.1342 c 0.1474,0.7886 0.1485,1.8618 0.007,3.2153 -0.0173,0.1622 -0.0176,0.2883 0,0.3824 0.0138,0.0746 0.1264,0.2923 0.3322,0.6461 0.0694,0.1165 0.1134,0.242 0.1386,0.3792 0.0964,0.5137 -0.1987,1.133 -0.889,1.8587 -0.6893,0.7299 -1.3937,1.1653 -2.1174,1.3079 -0.4193,0.0828 -0.8011,0.0238 -1.1376,-0.1743 -0.3373,-0.2018 -0.5411,-0.4828 -0.6103,-0.8513 -0.0572,-0.3058 -0.0425,-0.5689 0.0408,-0.7849 0.0879,-0.2123 0.3626,-0.7058 0.8371,-1.4743 0.6673,-1.0831 0.9213,-2.0727 0.7552,-2.9591 -0.0808,-0.4311 -0.2484,-0.7517 -0.4961,-0.9674 -0.2523,-0.2186 -0.542,-0.2954 -0.8731,-0.2302 -0.6542,0.129 -1.0366,0.8141 -1.1483,2.052 -0.1613,1.6747 -0.3061,2.7567 -0.4348,3.2414 -0.5658,2.1365 -1.7566,3.384 -3.5654,3.7403 -1.6008,0.3158 -3.0337,-0.0932 -4.2991,-1.2265 -1.29,-1.1563 -2.1432,-2.8386 -2.554,-5.0344 -0.1837,-0.9805 -0.2619,-2.0386 -0.2384,-3.1697 0.0278,-1.1318 0.1497,-1.9734 0.3671,-2.5165 0.1707,-0.4116 0.6316,-0.8482 1.3845,-1.3014 0.7531,-0.4536 1.5139,-0.7583 2.2799,-0.9094 0.3693,-0.0726 0.661,-0.0487 0.8781,0.0669 0.2784,0.1446 0.4425,0.36 0.4967,0.6506 0.055,0.2939 -0.0392,0.6009 -0.2815,0.9255 -0.1355,0.1936 -0.5956,0.6786 -1.3805,1.4513 -0.3665,0.3651 -0.6321,0.8853 -0.7943,1.5557 -0.161,0.674 -0.1805,1.3368 -0.0572,1.9956 0.1066,0.5683 0.2925,1.008 0.5661,1.3198 0.2738,0.3118 0.5723,0.4362 0.8957,0.3724 0.3002,-0.0592 0.5315,-0.2514 0.6996,-0.5692 0.1638,-0.3166 0.2843,-0.8041 0.356,-1.4646 0.1338,-1.1614 0.2858,-2.0574 0.4629,-2.6858 0.1732,-0.6322 0.4266,-1.2391 0.7654,-1.8179 0.8235,-1.419 1.9077,-2.2589 3.2428,-2.522 0.6619,-0.1307 1.3374,-0.1015 2.0234,0.0887 0.6863,0.1902 1.3113,0.5264 1.8771,1.0123 1.2988,1.078 2.1237,2.5418 2.471,4.3968 z m 1.6421,9.2962 2.4403,5.4658 c 0.4947,1.1078 0.8762,1.9037 1.1497,2.3907 0.273,0.487 0.5868,0.9374 0.9411,1.3556 0.1058,0.1306 0.1792,0.2369 0.2166,0.3206 0.1653,0.3702 0.1188,0.7869 -0.1471,1.2529 -0.4255,0.7648 -1.0851,1.3532 -1.9837,1.7722 -0.4527,0.2115 -0.8529,0.2798 -1.2027,0.2103 -0.3481,-0.0748 -0.5967,-0.2837 -0.7472,-0.6213 -0.1055,-0.2362 -0.1404,-0.4397 -0.1058,-0.6135 0.034,-0.174 0.1687,-0.4518 0.396,-0.8209 0.3274,-0.5303 0.4646,-1.0723 0.4074,-1.6251 -0.0573,-0.5524 -0.3291,-1.3736 -0.817,-2.4667 -0.3648,-0.8169 -0.7316,-1.243 -1.0964,-1.2878 -0.1953,-0.0232 -0.4232,0.0176 -0.6914,0.1205 -0.2633,0.1052 -0.9244,0.4006 -1.9831,0.8943 -0.4176,0.1948 -0.6455,0.3887 -0.682,0.5769 -0.04,0.1899 0.0754,0.5837 0.3444,1.1866 0.1332,0.2979 0.2908,0.4873 0.4722,0.5652 0.1851,0.076 0.4414,0.0618 0.7662,-0.0502 0.4289,-0.1386 0.7263,-0.216 0.9003,-0.2313 0.1729,-0.019 0.3484,0.0179 0.5222,0.1077 0.1913,0.0908 0.3333,0.2348 0.4226,0.4346 0.1296,0.2905 0.1046,0.6007 -0.0743,0.9343 -0.1366,0.2438 -0.4368,0.5372 -0.9048,0.8785 -0.4643,0.3393 -0.9748,0.6431 -1.531,0.9028 -1.1018,0.5136 -2.082,0.7602 -2.9401,0.7393 -0.4711,-0.0131 -0.79,-0.2155 -0.9635,-0.6041 -0.1085,-0.2432 -0.1227,-0.4388 -0.0419,-0.5859 0.0808,-0.1477 0.3013,-0.3379 0.6605,-0.567 0.7409,-0.4728 0.9238,-1.1242 0.5541,-1.9522 -0.1425,-0.3197 -0.3362,-0.4926 -0.5879,-0.5156 -0.2531,-0.0266 -0.6463,0.0862 -1.1812,0.3359 -0.3282,0.1528 -0.7409,0.3762 -1.2387,0.6608 -0.4998,0.29 -0.8206,0.4972 -0.9658,0.6261 -0.1825,0.1508 -0.2489,0.3972 -0.1961,0.7277 0.0493,0.3325 0.229,0.8413 0.5371,1.5313 0.4754,1.0641 0.9675,1.7997 1.4763,2.2161 0.5077,0.4127 1.1886,0.6262 2.0472,0.6381 0.4921,0.0119 0.8425,0.0635 1.0531,0.1584 0.2103,0.0947 0.3741,0.2688 0.4875,0.5227 0.133,0.298 0.1151,0.605 -0.0504,0.9193 -0.1695,0.3155 -0.4445,0.5579 -0.826,0.7359 -0.4176,0.1947 -0.9902,0.3302 -1.715,0.4051 -0.7268,0.0711 -1.4032,0.0615 -2.0341,-0.0301 -0.3085,-0.0536 -0.5253,-0.1148 -0.6546,-0.182 -0.127,-0.072 -0.2265,-0.1882 -0.3027,-0.3498 -0.0567,-0.136 -0.1244,-0.337 -0.197,-0.6151 -0.1205,-0.4921 -0.3379,-1.1234 -0.6554,-1.8924 l -4.028,-9.0213 c -0.1622,-0.3634 -0.2086,-0.6794 -0.1412,-0.9524 0.0695,-0.2696 0.2455,-0.4739 0.5307,-0.6072 0.2032,-0.0949 0.369,-0.1196 0.4969,-0.074 0.1261,0.0423 0.3316,0.1834 0.6069,0.4238 0.1831,0.169 0.3651,0.277 0.5425,0.3175 0.1812,0.0383 0.4091,0.0283 0.692,-0.0332 1.1557,-0.2585 2.6282,-0.8005 4.4112,-1.6319 2.689,-1.254 4.3067,-2.2147 4.8603,-2.8851 0.108,-0.1341 0.1687,-0.2585 0.1888,-0.3688 0.0142,-0.1119 0.003,-0.3217 -0.0425,-0.6256 -0.059,-0.4595 0.1142,-0.786 0.5244,-0.9774 0.2245,-0.1048 0.4518,-0.1272 0.6863,-0.0742 0.235,0.053 0.4283,0.1777 0.5828,0.3691 0.1834,0.2474 0.4558,0.7701 0.811,1.5655 z m 2.2819,23.6381 c -0.1747,-0.2352 -0.3578,-0.3291 -0.548,-0.2871 -0.1876,0.0451 -0.5386,0.2616 -1.0511,0.6582 -0.775,0.5992 -1.3433,1.1191 -1.7016,1.5514 -0.0984,0.1259 -0.1599,0.2483 -0.1803,0.3597 -0.0215,0.1168 -0.0153,0.2974 0.0176,0.5471 0.0734,0.5295 -0.055,0.9193 -0.3833,1.173 -0.403,0.3118 -0.8787,0.2744 -1.4326,-0.1137 -0.5539,-0.3875 -1.2903,-1.2002 -2.209,-2.4372 -1.7085,-2.2989 -2.1334,-3.778 -1.277,-4.4405 0.1437,-0.1111 0.2888,-0.1681 0.4254,-0.1689 0.1429,-3e-4 0.3805,0.0618 0.7195,0.18 0.3812,0.1357 0.7273,0.1581 1.0392,0.0674 0.3112,-0.091 0.7764,-0.3455 1.3989,-0.7668 0.4546,-0.3016 2.0194,-1.487 4.6944,-3.5563 0.8467,-0.6554 1.3915,-1.1469 1.6342,-1.4698 0.237,-0.3237 0.3217,-0.6797 0.2497,-1.0749 -0.0751,-0.3724 -0.0932,-0.6485 -0.0555,-0.8231 0.0377,-0.1741 0.1428,-0.3308 0.3149,-0.4638 0.2251,-0.174 0.4875,-0.2372 0.7858,-0.1871 0.2987,0.0442 0.608,0.1953 0.9223,0.453 0.2674,0.214 0.5701,0.5553 0.9151,1.0196 0.1533,0.207 0.5057,0.7407 1.0525,1.6095 0.1012,0.1622 0.2792,0.415 0.5275,0.7487 0.4156,0.5595 1.0057,1.275 1.77,2.1512 0.4833,0.5576 0.8124,0.9538 0.987,1.1891 0.9876,1.3297 1.4896,2.6737 1.5063,4.028 0.0122,1.2221 -0.4813,2.2201 -1.4907,3.0005 -0.5596,0.4329 -1.1736,0.6925 -1.8357,0.7747 -0.6659,0.0842 -1.2915,-0.0229 -1.8772,-0.3209 -0.2457,-0.1252 -0.4345,-0.1346 -0.5689,-0.0306 -0.178,0.1378 -0.2086,0.4017 -0.091,0.7917 0.2532,0.8306 0.2543,1.5809 0.0128,2.2485 -0.2446,0.665 -0.8036,1.4428 -1.675,2.3227 -0.3634,0.3657 -0.5641,0.6514 -0.6052,0.8481 -0.0405,0.1967 0.0255,0.531 0.2021,1.0004 0.0556,0.1477 0.0505,0.3067 -0.009,0.4779 -0.0606,0.1772 -0.1635,0.3166 -0.3103,0.43 -0.1874,0.1454 -0.4323,0.2197 -0.7373,0.2203 -0.3014,-0.002 -0.5987,-0.0777 -0.8827,-0.2285 -0.6251,-0.3376 -1.2731,-0.9581 -1.9489,-1.8678 -0.8974,-1.2084 -1.2299,-2.3181 -0.9864,-3.3278 0.1034,-0.4505 0.3109,-0.9264 0.6131,-1.4205 0.3047,-0.4966 0.8266,-1.2053 1.5642,-2.1268 0.4748,-0.5925 0.7463,-1.088 0.824,-1.4939 0.072,-0.4062 -0.0337,-0.82 -0.3197,-1.2447 z m 4.2667,-4.1522 -2.2096,1.5495 c -0.0188,0.0141 -0.044,0.0337 -0.0814,0.0626 -0.2185,0.1692 -0.3419,0.3149 -0.3674,0.4394 -0.0246,0.1193 0.0372,0.282 0.1837,0.479 0.4065,0.5468 0.8391,0.8382 1.3014,0.8711 0.4649,0.036 1.0006,-0.1831 1.6132,-0.6573 1.1778,-0.9111 1.4488,-1.7918 0.8158,-2.6439 -0.1797,-0.2415 -0.3634,-0.3699 -0.5459,-0.3838 -0.1829,-0.0139 -0.4187,0.0785 -0.7098,0.2834 z m 16.3071,17.3892 -10.9984,4.6406 c -0.6761,0.2891 -1.209,0.4294 -1.5894,0.4243 -0.3807,-0.006 -0.7398,-0.157 -1.0721,-0.4544 -0.2761,-0.2471 -0.4714,-0.5286 -0.5828,-0.8467 -0.0847,-0.246 -0.121,-0.4702 -0.1063,-0.6806 0.0145,-0.2106 0.091,-0.5468 0.2291,-1.0032 l 3.3137,-11.0854 c 0.189,-0.6182 0.2744,-1.0794 0.2551,-1.3842 -0.0187,-0.3044 -0.1545,-0.612 -0.3988,-0.9269 -0.2872,-0.3742 -0.2741,-0.7455 0.0442,-1.1149 0.3883,-0.451 0.9915,-0.5283 1.8039,-0.2321 0.8125,0.2965 1.7828,0.9468 2.909,1.955 1.1698,1.0477 1.9508,1.9123 2.3453,2.5844 0.3949,0.6783 0.4275,1.2078 0.1015,1.5865 -0.2151,0.2495 -0.5615,0.3439 -1.0426,0.2858 -0.3668,-0.0462 -0.6108,0.001 -0.7299,0.1394 -0.1114,0.1293 -0.2188,0.3632 -0.3231,0.6954 l -1.0627,3.4452 c -0.1574,0.5032 -0.142,0.8416 0.055,1.0179 0.1879,0.1684 0.4413,0.2251 0.7596,0.1641 0.313,-0.0606 0.8445,-0.2607 1.5894,-0.6051 1.3329,-0.6163 2.1152,-0.9803 2.3491,-1.1007 0.2344,-0.1148 0.394,-0.2277 0.4793,-0.3266 0.171,-0.1984 0.1834,-0.491 0.0377,-0.8716 -0.1627,-0.4278 -0.1391,-0.7631 0.0732,-1.0095 0.6006,-0.697 1.8207,-0.2276 3.6524,1.4123 0.9111,0.8161 1.493,1.4703 1.7402,1.9576 0.2466,0.4867 0.2118,0.9082 -0.104,1.2744 -0.3731,0.4329 -0.8345,0.4615 -1.3856,0.0851 -0.3835,-0.2742 -0.6619,-0.4167 -0.8294,-0.4337 -0.2985,-0.0278 -0.8039,0.1051 -1.5126,0.4076 z m 9.3073,1.5585 c 0.7296,0.4872 1.3739,1.0134 1.9346,1.5743 0.7566,0.7586 0.9477,1.4219 0.5775,1.9968 -0.1228,0.1904 -0.256,0.3024 -0.4014,0.3393 -0.1474,0.0399 -0.4547,0.0306 -0.9267,-0.0216 -0.3917,-0.0465 -0.7957,0.1522 -1.2166,0.6027 -0.419,0.447 -1.1041,1.4094 -2.0534,2.8836 -1.6059,2.4937 -2.5413,4.0774 -2.8035,4.7538 -0.0768,0.2208 -0.1009,0.4107 -0.076,0.5757 0.0273,0.1613 0.1197,0.3807 0.2736,0.6508 0.2973,0.4762 0.3237,0.9 0.0828,1.2745 -0.336,0.5215 -0.9556,0.619 -1.8618,0.2959 -0.9777,-0.3569 -2.0778,-0.9383 -3.2984,-1.7541 -2.0846,-1.3924 -2.8627,-2.4956 -2.342,-3.3046 0.1893,-0.294 0.5686,-0.4326 1.1415,-0.4136 0.4394,0.0162 0.7968,-0.1324 1.0729,-0.4306 0.6015,-0.6644 1.6795,-2.2008 3.236,-4.6182 1.0764,-1.6713 1.6798,-2.7981 1.8199,-3.3786 0.0808,-0.3285 0.0227,-0.7115 -0.1775,-1.1562 -0.1502,-0.3484 -0.2321,-0.6137 -0.2426,-0.7932 -0.0136,-0.1763 0.0377,-0.3571 0.1542,-0.5377 0.1806,-0.2806 0.4592,-0.4153 0.8317,-0.4051 0.3727,0.01 0.9357,0.1755 1.6906,0.4932 0.9039,0.3694 1.7659,0.8261 2.5846,1.3729 z m 10.023,5.3699 c 1.0063,0.4904 1.8717,1.1875 2.5988,2.0962 0.3407,0.4281 0.599,0.6821 0.7716,0.7668 0.1236,0.0598 0.3351,0.1276 0.6412,0.1973 0.1018,0.023 0.2055,0.0604 0.3149,0.114 0.3603,0.1754 0.595,0.498 0.7036,0.9677 0.2801,1.1384 0.1293,2.3148 -0.4414,3.526 -0.4008,0.8504 -0.9805,1.3349 -1.7373,1.4485 -0.4108,0.0613 -0.8062,-0.003 -1.1945,-0.1924 -0.3495,-0.1707 -0.5996,-0.3856 -0.7492,-0.6492 -0.146,-0.2616 -0.2302,-0.6443 -0.2535,-1.1389 -0.0351,-0.6996 -0.0867,-1.2167 -0.1581,-1.5531 -0.0703,-0.3311 -0.1959,-0.6628 -0.3708,-0.9922 -0.4431,-0.801 -1.0318,-1.3853 -1.7629,-1.7416 -0.7092,-0.3461 -1.3983,-0.3586 -2.061,-0.0391 -0.6642,0.3232 -1.2039,0.9244 -1.618,1.8037 -0.5707,1.2112 -0.792,2.4639 -0.667,3.7658 0.1785,1.7405 1.0275,2.9792 2.5458,3.7196 0.5572,0.2722 1.1559,0.4485 1.7929,0.5244 0.6412,0.0777 1.18,0.0392 1.6262,-0.1153 0.3801,-0.1253 0.6551,-0.146 0.8209,-0.0652 0.2401,0.1171 0.3955,0.3302 0.4601,0.6457 0.0621,0.3096 0.0201,0.6302 -0.133,0.9544 -0.1919,0.4074 -0.5275,0.8065 -1.0105,1.196 -0.4777,0.3875 -0.9556,0.6463 -1.4307,0.7693 -0.2004,0.0482 -0.5499,0.006 -1.0493,-0.1219 -0.2835,-0.0805 -0.6943,-0.121 -1.2286,-0.1205 -1.256,0.003 -2.4324,-0.2647 -3.5371,-0.8036 -1.1511,-0.5612 -2.1744,-1.3839 -3.0724,-2.4735 -1.0384,-1.26 -1.6492,-2.7105 -1.8244,-4.3563 -0.1783,-1.6027 0.0502,-3.0736 0.6837,-4.4178 0.737,-1.5647 1.8805,-2.7575 3.4418,-3.5827 1.3522,-0.7143 2.8353,-1.0417 4.4462,-0.9873 1.2254,0.0437 2.3757,0.33 3.452,0.8552 z m 8.2845,4.0867 5.6699,1.6322 c 1.1489,0.3305 1.9919,0.548 2.5333,0.6497 0.5417,0.1021 1.0817,0.1494 1.6246,0.1437 0.1664,0.002 0.2934,0.0139 0.3801,0.0389 0.3841,0.1102 0.6653,0.4158 0.841,0.9232 0.2948,0.824 0.3065,1.7164 0.036,2.6853 -0.1363,0.4881 -0.3452,0.8433 -0.6244,1.0703 -0.2818,0.2223 -0.5993,0.2801 -0.9496,0.1795 -0.245,-0.0703 -0.4196,-0.1749 -0.527,-0.3141 -0.1077,-0.1386 -0.2279,-0.4224 -0.3563,-0.8374 -0.1834,-0.5967 -0.4995,-1.053 -0.9499,-1.3654 -0.4502,-0.3124 -1.2402,-0.6313 -2.3743,-0.9576 -0.8476,-0.2437 -1.4037,-0.2338 -1.6744,0.0207 -0.144,0.1367 -0.2617,0.3399 -0.3586,0.6152 -0.0927,0.2724 -0.3016,0.9762 -0.6202,2.1183 -0.1256,0.4496 -0.1287,0.752 -0.0119,0.902 0.1159,0.1539 0.4852,0.3183 1.1106,0.498 0.3089,0.089 0.5533,0.089 0.729,-0.001 0.1772,-0.095 0.3328,-0.3033 0.4604,-0.6282 0.1749,-0.4229 0.3101,-0.7035 0.4121,-0.8486 0.0978,-0.1466 0.2393,-0.2597 0.4193,-0.3365 0.1922,-0.0899 0.392,-0.1072 0.5992,-0.0476 0.3016,0.0867 0.5171,0.3064 0.6503,0.6604 0.0933,0.2637 0.1179,0.6863 0.0686,1.2702 -0.0479,0.5803 -0.1525,1.173 -0.3198,1.7725 -0.3319,1.188 -0.784,2.1087 -1.3575,2.7618 -0.3152,0.358 -0.6735,0.4751 -1.0768,0.3589 -0.2523,-0.0726 -0.4074,-0.1879 -0.4649,-0.3455 -0.0579,-0.1582 -0.057,-0.4527 0.005,-0.8794 0.1281,-0.881 -0.2401,-1.4436 -1.099,-1.6908 -0.3317,-0.0953 -0.5865,-0.057 -0.7674,0.1241 -0.1845,0.1795 -0.3554,0.5579 -0.5161,1.1347 -0.099,0.3535 -0.2002,0.8187 -0.3107,1.389 -0.1075,0.5752 -0.1616,0.9587 -0.1593,1.1546 -0.006,0.2392 0.1349,0.4501 0.4164,0.6225 0.2803,0.176 0.7772,0.3648 1.493,0.5706 1.1041,0.318 1.9738,0.4104 2.6155,0.2834 0.6381,-0.1275 1.2396,-0.5193 1.8065,-1.1786 0.3286,-0.3747 0.5945,-0.614 0.8022,-0.7163 0.2075,-0.1018 0.4439,-0.1171 0.7079,-0.0411 0.3086,0.089 0.5263,0.301 0.6536,0.6327 0.1259,0.335 0.1287,0.7055 0.0136,1.1168 -0.1255,0.4502 -0.3965,0.9825 -0.8112,1.5939 -0.419,0.6106 -0.8652,1.1299 -1.3437,1.5614 -0.2403,0.2049 -0.4269,0.3339 -0.5609,0.3911 -0.1364,0.0519 -0.288,0.0542 -0.4584,0.009 -0.1383,-0.0439 -0.3325,-0.121 -0.5873,-0.2441 -0.4462,-0.2242 -1.0594,-0.4626 -1.8403,-0.7123 l -9.3586,-2.6935 c -0.3767,-0.1083 -0.6429,-0.2764 -0.803,-0.5054 -0.1562,-0.2276 -0.1951,-0.4964 -0.1092,-0.8039 0.0613,-0.2191 0.1503,-0.364 0.2676,-0.4337 0.1134,-0.0714 0.3524,-0.1395 0.7107,-0.1984 0.2452,-0.0335 0.4444,-0.1046 0.5896,-0.2166 0.1462,-0.1157 0.2871,-0.2996 0.4246,-0.5587 0.5576,-1.065 1.1092,-2.5594 1.6461,-4.4816 0.809,-2.8987 1.1418,-4.7755 1.0003,-5.6387 -0.0297,-0.1709 -0.0836,-0.2985 -0.153,-0.3849 -0.0743,-0.0836 -0.2387,-0.2101 -0.4953,-0.3708 -0.3812,-0.2511 -0.513,-0.5961 -0.3894,-1.0383 0.0674,-0.2424 0.1984,-0.4331 0.39,-0.5814 0.1922,-0.1482 0.411,-0.218 0.6542,-0.2146 0.3045,0.0173 0.872,0.1432 1.6971,0.3804 z m 21.0096,21.2222 -1.5276,-0.1571 c -1.076,-0.1031 -1.8612,-0.1658 -2.3593,-0.1885 -0.4439,-0.013 -0.7611,-0.028 -0.9521,-0.0493 -0.4629,-0.0513 -0.8201,-0.2115 -1.0661,-0.4836 -0.243,-0.2681 -0.3442,-0.5686 -0.3079,-0.9023 0.0238,-0.2185 0.093,-0.3835 0.2041,-0.4957 0.1148,-0.1163 0.3733,-0.2801 0.7835,-0.504 0.2353,-0.131 0.4133,-0.3563 0.5349,-0.6767 0.1176,-0.3203 0.2883,-1.0167 0.504,-2.0942 0.328,-1.6719 0.6293,-3.7485 0.8989,-6.2223 0.0986,-0.9057 0.1057,-1.5157 0.0215,-1.8264 -0.0879,-0.3152 -0.3373,-0.5919 -0.7489,-0.8303 -0.4785,-0.2741 -0.6928,-0.6193 -0.6469,-1.0403 0.0372,-0.3415 0.2155,-0.6032 0.5389,-0.7883 0.3271,-0.1808 0.7245,-0.2497 1.1957,-0.1973 0.2571,0.0284 0.5867,0.0768 0.989,0.1454 0.6661,0.1061 1.385,0.2016 2.1597,0.2875 0.5723,0.0632 1.6962,0.1632 3.3755,0.3007 0.5232,0.042 1.0034,0.087 1.4278,0.1341 1.012,0.112 1.8167,0.2855 2.4177,0.5207 0.6006,0.235 1.1114,0.5772 1.5233,1.0245 0.6738,0.7259 0.9536,1.6288 0.8362,2.7051 -0.0584,0.536 -0.2239,1.0443 -0.5014,1.5281 -0.2775,0.4833 -0.6171,0.8558 -1.0239,1.1166 -0.2886,0.1888 -0.4425,0.3728 -0.4621,0.5513 -0.0209,0.1948 0.1205,0.3751 0.4258,0.5415 0.595,0.3231 1.1166,0.8189 1.5565,1.4785 0.4575,0.6857 0.6361,1.5052 0.5332,2.4503 -0.1216,1.1157 -0.6341,2.0919 -1.5324,2.925 -1.188,1.1024 -2.8193,1.537 -4.8869,1.3082 -0.2801,-0.0309 -0.9709,-0.1275 -2.0688,-0.2854 -1.0003,-0.1508 -1.6129,-0.2427 -1.8419,-0.2758 z m 2.162,-12.5374 -0.2611,2.3987 c -0.0417,0.3813 -0.0241,0.6525 0.0567,0.8181 0.0765,0.1652 0.2353,0.2633 0.4688,0.2891 0.5644,0.0624 0.9967,-0.0709 1.304,-0.3946 0.303,-0.324 0.4955,-0.8611 0.5774,-1.612 0.0794,-0.7305 0.005,-1.3094 -0.2245,-1.7368 -0.2327,-0.4317 -0.5964,-0.673 -1.0984,-0.7285 -0.2648,-0.0292 -0.4604,0.0255 -0.5777,0.1652 -0.1219,0.1392 -0.2021,0.4077 -0.2452,0.8008 z m -0.7302,6.7034 -0.1205,1.1038 c -0.1106,1.0168 -0.1103,1.6999 -0.003,2.0494 0.1078,0.3498 0.3816,0.5486 0.8255,0.5976 1.1526,0.1278 1.8076,-0.4989 1.9585,-1.8808 0.1873,-1.7195 -0.3651,-2.6529 -1.6577,-2.7958 -0.3348,-0.0371 -0.5766,0.0125 -0.7209,0.1451 -0.1448,0.1327 -0.2398,0.3912 -0.2823,0.7807 z m 11.2481,-9.1364 5.8952,-0.0975 c 1.1946,-0.0195 2.0639,-0.0581 2.6116,-0.1187 0.5479,-0.0613 1.0791,-0.1741 1.5979,-0.3382 0.1601,-0.0465 0.2852,-0.0729 0.375,-0.0743 0.3997,-0.007 0.7549,0.2033 1.0664,0.6375 0.5148,0.7027 0.777,1.5534 0.7903,2.5597 0.007,0.5074 -0.0935,0.9082 -0.2971,1.2076 -0.208,0.2951 -0.496,0.4433 -0.8603,0.4493 -0.2542,0.004 -0.451,-0.0443 -0.5936,-0.146 -0.142,-0.1015 -0.3373,-0.3376 -0.5771,-0.6973 -0.3438,-0.5176 -0.7755,-0.8618 -1.2949,-1.0293 -0.5193,-0.1672 -1.3668,-0.2409 -2.5457,-0.2214 -0.8811,0.0145 -1.412,0.1868 -1.5994,0.5097 -0.1,0.1732 -0.1553,0.4019 -0.1709,0.6936 -0.0122,0.288 -0.0142,1.0228 0.002,2.2093 0.006,0.4672 0.0887,0.7577 0.2427,0.8669 0.1544,0.1131 0.5544,0.1624 1.2047,0.1516 0.3214,-0.005 0.5553,-0.0768 0.6987,-0.2151 0.1429,-0.1423 0.2339,-0.3872 0.2642,-0.7353 0.0488,-0.4561 0.0998,-0.7645 0.1562,-0.9332 0.0527,-0.1689 0.1568,-0.3183 0.3076,-0.4447 0.1587,-0.1423 0.3458,-0.2175 0.5612,-0.2212 0.3133,-0.005 0.5817,0.1421 0.809,0.4423 0.1639,0.2247 0.3062,0.6222 0.4232,1.1956 0.1174,0.5692 0.1843,1.1673 0.1925,1.7901 0.0162,1.2342 -0.1582,2.2476 -0.5238,3.0407 -0.2019,0.4348 -0.5125,0.652 -0.9315,0.6588 -0.2625,0.004 -0.4436,-0.0607 -0.5431,-0.1948 -0.1001,-0.1343 -0.1817,-0.4164 -0.2427,-0.843 -0.1252,-0.8807 -0.6361,-1.3119 -1.5295,-1.2968 -0.3447,0.005 -0.578,0.1173 -0.7005,0.343 -0.1264,0.2256 -0.1839,0.638 -0.1757,1.2373 0.005,0.3674 0.0385,0.8422 0.0932,1.4204 0.059,0.5825 0.1151,0.9649 0.1724,1.1517 0.0618,0.2308 0.256,0.3915 0.5743,0.474 0.3183,0.0867 0.8481,0.1219 1.5922,0.1094 1.1478,-0.019 2.0075,-0.1848 2.5869,-0.4941 0.5757,-0.3092 1.0426,-0.86 1.4003,-1.6568 0.2095,-0.455 0.3972,-0.7614 0.5675,-0.9201 0.1701,-0.1588 0.3926,-0.2424 0.6667,-0.2469 0.3209,-0.005 0.5896,0.134 0.8051,0.4141 0.2151,0.284 0.3217,0.6378 0.3274,1.0653 0.006,0.4674 -0.1035,1.0561 -0.3291,1.7631 -0.2296,0.707 -0.5114,1.3346 -0.849,1.8873 -0.1726,0.2668 -0.3152,0.4448 -0.4275,0.5386 -0.1162,0.0901 -0.2608,0.1363 -0.4371,0.1431 -0.1445,-0.001 -0.3526,-0.0181 -0.6315,-0.0615 -0.4907,-0.0836 -1.1455,-0.1329 -1.9647,-0.1434 l -9.73,0.1607 c -0.3917,0.007 -0.6942,-0.0765 -0.9121,-0.2486 -0.2138,-0.172 -0.3266,-0.4181 -0.3311,-0.7375 -0.003,-0.2277 0.0416,-0.3921 0.1346,-0.4936 0.0887,-0.1012 0.2982,-0.2364 0.6253,-0.3979 0.226,-0.1035 0.3966,-0.2302 0.5046,-0.3796 0.1074,-0.1536 0.1908,-0.3708 0.2497,-0.6593 0.2347,-1.1827 0.343,-2.7743 0.3164,-4.771 -0.04,-3.0116 -0.2495,-4.9054 -0.6279,-5.6903 -0.0768,-0.1545 -0.1644,-0.2611 -0.2551,-0.3234 -0.095,-0.0581 -0.288,-0.1313 -0.5791,-0.2104 -0.4363,-0.1284 -0.6596,-0.4201 -0.6656,-0.8796 -0.004,-0.2517 0.068,-0.4725 0.2103,-0.6706 0.1423,-0.1982 0.3325,-0.3288 0.567,-0.3969 0.2965,-0.0725 0.8759,-0.1182 1.7336,-0.1324 z m 20.5883,1.1906 c -0.5241,0.0757 -0.8274,0.2602 -0.911,0.5465 -0.0655,0.2152 -0.0978,0.6188 -0.0953,1.2192 -0.002,0.5973 0.0318,1.137 0.0967,1.6155 0.0388,0.2846 0.1551,0.4697 0.3526,0.5541 0.1968,0.0805 0.5457,0.0868 1.0466,0.0145 0.3333,-0.0479 0.5692,-0.1463 0.7118,-0.2917 0.1417,-0.1497 0.2262,-0.3716 0.2449,-0.6727 0.0601,-0.8676 0.3594,-1.3422 0.8988,-1.4198 0.9233,-0.133 1.5384,0.9277 1.8454,3.1861 0.1939,1.4281 0.1352,2.5092 -0.1735,3.2352 -0.1885,0.4467 -0.4941,0.7004 -0.9173,0.7614 -0.4461,0.064 -0.7475,-0.2033 -0.8966,-0.8065 -0.0924,-0.3861 -0.1769,-0.6605 -0.2574,-0.8144 -0.0762,-0.1539 -0.206,-0.2928 -0.3849,-0.4161 -0.2843,-0.2013 -0.6619,-0.2718 -1.1432,-0.2027 -0.3373,0.0488 -0.5616,0.1457 -0.6653,0.2858 -0.1038,0.1397 -0.1256,0.3846 -0.0629,0.7307 0.008,0.0632 0.053,0.4198 0.1346,1.0775 0.1817,1.3365 0.428,2.1322 0.7399,2.3896 0.1091,0.1015 0.2123,0.163 0.3103,0.1851 0.1012,0.0178 0.3527,0.0337 0.7643,0.0351 0.2024,0.003 0.3829,0.082 0.5431,0.2404 0.1599,0.1588 0.2577,0.3541 0.2894,0.5876 0.0808,0.593 -0.2086,1.0259 -0.8682,1.2943 -0.9536,0.3796 -2.3182,0.7005 -4.0992,0.957 -1.5642,0.2251 -2.6518,0.2852 -3.267,0.184 -0.2789,-0.0445 -0.5133,-0.1681 -0.7109,-0.3697 -0.1973,-0.2012 -0.3161,-0.4342 -0.3526,-0.7032 -0.0462,-0.3402 0.0365,-0.6344 0.2528,-0.8751 0.0559,-0.0567 0.2478,-0.1848 0.5851,-0.3824 0.4,-0.231 0.6026,-0.6596 0.5998,-1.2923 0.007,-0.9686 -0.218,-3.1462 -0.6775,-6.5279 -0.1984,-1.4593 -0.377,-2.3975 -0.5334,-2.8188 -0.1557,-0.417 -0.4369,-0.6831 -0.8402,-0.7985 -0.3997,-0.1159 -0.6684,-0.2302 -0.8059,-0.3396 -0.1335,-0.1097 -0.2172,-0.2871 -0.2495,-0.5247 -0.0462,-0.3399 0.0783,-0.6483 0.3731,-0.9246 0.2951,-0.2722 0.6831,-0.4454 1.1602,-0.514 0.3027,-0.0433 0.7483,-0.083 1.3371,-0.1196 1.2509,-0.0794 2.7366,-0.2409 4.4555,-0.4884 2.751,-0.3957 4.5913,-0.7415 5.5287,-1.0335 0.1258,-0.0343 0.2216,-0.0561 0.2919,-0.0661 0.2637,-0.0382 0.5406,0.0794 0.8232,0.3532 0.7852,0.7702 1.249,1.6793 1.3921,2.7315 0.0649,0.4782 0.008,0.8779 -0.174,1.1942 -0.1826,0.3167 -0.4505,0.5004 -0.8073,0.5519 -0.2639,0.038 -0.4729,0.0154 -0.6234,-0.0759 -0.1505,-0.087 -0.5513,-0.4167 -1.2021,-0.9842 -0.3918,-0.3509 -0.8391,-0.5567 -1.3369,-0.61 -0.498,-0.0533 -1.4057,-0.007 -2.7224,0.142 z m 14.2546,-5.8065 c 1.8995,-0.5247 3.7052,-0.4323 5.417,0.2857 1.1608,0.4941 2.2,1.266 3.1167,2.3111 0.9006,1.0457 1.5089,2.1677 1.8267,3.3744 0.4683,1.7773 0.3115,3.5249 -0.474,5.2429 -0.6624,1.461 -1.7093,2.6643 -3.1462,3.6196 -0.8852,0.5839 -1.8158,1.0106 -2.7921,1.2804 -1.2787,0.3532 -2.5721,0.4215 -3.8843,0.2007 -1.584,-0.265 -2.9494,-0.9507 -4.0961,-2.0526 -1.1128,-1.0652 -1.8711,-2.3734 -2.2776,-3.9155 -0.4722,-1.7929 -0.3926,-3.5104 0.2455,-5.1548 0.5672,-1.468 1.5236,-2.6917 2.8706,-3.6802 0.9037,-0.6675 1.9681,-1.1727 3.1938,-1.5117 z m -0.1975,3.5334 c -0.6206,0.1712 -1.0384,0.5885 -1.2535,1.2518 -0.1681,0.5017 -0.1763,1.0411 -0.0241,1.6197 0.2245,0.8518 0.6536,1.7881 1.2892,2.812 0.6349,1.0238 1.324,1.9 2.0698,2.6206 0.3246,0.3073 0.6857,0.5216 1.0803,0.6486 0.3935,0.123 0.7637,0.1405 1.1115,0.0442 0.5601,-0.1548 0.9572,-0.4961 1.1885,-1.0191 0.2271,-0.5258 0.2526,-1.1367 0.0678,-1.8383 -0.2395,-0.9099 -0.6423,-1.8532 -1.2067,-2.8264 -0.5698,-0.9757 -1.1772,-1.7713 -1.832,-2.3927 -0.4048,-0.3807 -0.8255,-0.6531 -1.2615,-0.8135 -0.4399,-0.1599 -0.8509,-0.1954 -1.2293,-0.1069 z" />
        <path
           id="path38"
           style="fill:#1b1918;fill-rule:evenodd"
           d="m 344.8284,541.9162 c -0.2639,0.1242 -0.3932,0.2863 -0.3943,0.4845 0.002,0.197 0.133,0.5924 0.4014,1.1871 0.4054,0.8989 0.7795,1.5755 1.1157,2.0242 0.0992,0.1245 0.2033,0.2115 0.3053,0.256 0.1074,0.0462 0.2815,0.0785 0.5278,0.0984 0.523,0.0396 0.8683,0.2505 1.04,0.6312 0.2109,0.4678 0.0715,0.9332 -0.4203,1.4023 -0.4924,0.4695 -1.4304,1.0299 -2.8151,1.6821 -2.5739,1.2127 -4.083,1.3212 -4.5312,0.328 -0.0751,-0.1667 -0.0981,-0.3229 -0.0692,-0.4598 0.0309,-0.142 0.1421,-0.3654 0.3289,-0.678 0.2131,-0.351 0.3098,-0.6908 0.2908,-1.0202 -0.0193,-0.3297 -0.1619,-0.847 -0.43,-1.5563 -0.1899,-0.5167 -0.9848,-2.3272 -2.3845,-5.4303 -0.4431,-0.9828 -0.7957,-1.6296 -1.052,-1.9397 -0.2582,-0.3045 -0.5808,-0.4649 -0.9748,-0.4771 -0.3733,-0.004 -0.6418,-0.0451 -0.8005,-0.1196 -0.159,-0.0746 -0.286,-0.2126 -0.3759,-0.4119 -0.1179,-0.2611 -0.121,-0.5363 -0.009,-0.8226 0.1074,-0.288 0.3198,-0.5638 0.635,-0.8221 0.2633,-0.2205 0.6559,-0.4498 1.1755,-0.6944 0.2316,-0.1092 0.8195,-0.3467 1.7705,-0.7064 0.1775,-0.0664 0.4584,-0.19 0.832,-0.3657 0.6267,-0.2954 1.44,-0.7313 2.4454,-1.3059 0.6393,-0.3626 1.0905,-0.6061 1.3542,-0.7302 1.4879,-0.701 2.8848,-0.9153 4.1853,-0.6441 1.173,0.2472 2.0214,0.9511 2.5495,2.122 0.2928,0.6489 0.4079,1.3153 0.3424,1.9928 -0.0643,0.6806 -0.3027,1.281 -0.716,1.8011 -0.1732,0.2177 -0.2231,0.404 -0.1528,0.5599 0.0933,0.2063 0.3393,0.2931 0.7381,0.2588 0.851,-0.0757 1.5696,0.0828 2.1566,0.4651 0.5834,0.3847 1.207,1.1067 1.8596,2.1615 0.2715,0.4393 0.5011,0.7004 0.6808,0.7829 0.1795,0.0819 0.5145,0.0873 1.0024,0.0113 0.1533,-0.0238 0.3044,0.0148 0.4558,0.1106 0.1562,0.0978 0.2676,0.2299 0.3444,0.4002 0.0981,0.2177 0.1159,0.4774 0.0502,0.7807 -0.0675,0.2999 -0.2047,0.5803 -0.4108,0.8311 -0.4595,0.5505 -1.1948,1.0639 -2.213,1.5435 -1.3527,0.6372 -2.488,0.7325 -3.4021,0.2752 -0.4091,-0.1987 -0.8195,-0.5065 -1.2271,-0.9122 -0.4091,-0.409 -0.9746,-1.0794 -1.6963,-2.0094 -0.4643,-0.599 -0.8799,-0.9749 -1.2515,-1.1382 -0.3736,-0.1581 -0.7931,-0.1406 -1.2617,0.0536 z m -3.0484,-5.1307 1.0029,2.5296 c 0.01,0.0216 0.0227,0.0505 0.0425,0.0942 0.1143,0.2537 0.2268,0.4076 0.3411,0.4592 0.1085,0.0499 0.278,0.0229 0.4986,-0.0808 0.6123,-0.2886 0.9853,-0.6577 1.1174,-1.1112 0.1358,-0.4552 0.0422,-1.0355 -0.2784,-1.7461 -0.6165,-1.3666 -1.4009,-1.8233 -2.3547,-1.3743 -0.2704,0.1276 -0.4334,0.2832 -0.4864,0.4624 -0.0533,0.1788 -0.0159,0.4337 0.117,0.767 z m 9.2203,-8.2298 4.9929,-3.21 c 1.012,-0.6505 1.736,-1.1443 2.1734,-1.4867 0.4376,-0.3425 0.8345,-0.7203 1.1945,-1.1356 0.1131,-0.1247 0.2069,-0.2134 0.2832,-0.2625 0.3381,-0.2174 0.7491,-0.227 1.2373,-0.0218 0.7988,0.326 1.4567,0.9125 1.9817,1.7634 0.2644,0.4289 0.3832,0.8241 0.3617,1.1872 -0.0272,0.3617 -0.1976,0.6414 -0.5063,0.8396 -0.2157,0.1386 -0.4087,0.2013 -0.5822,0.1899 -0.1738,-0.0108 -0.4612,-0.1088 -0.8499,-0.2883 -0.5581,-0.2588 -1.1029,-0.3234 -1.6324,-0.1907 -0.5298,0.1332 -1.2923,0.5195 -2.291,1.1613 -0.7463,0.4799 -1.1123,0.9085 -1.1081,1.2833 0.003,0.2004 0.072,0.4249 0.2075,0.682 0.137,0.252 0.51,0.8796 1.1285,1.8827 0.2441,0.3952 0.4626,0.5993 0.6497,0.6106 0.1902,0.0148 0.5576,-0.1556 1.1084,-0.5096 0.2724,-0.1749 0.4357,-0.36 0.4881,-0.5539 0.0493,-0.1973 0.002,-0.4544 -0.1491,-0.7677 -0.1911,-0.4144 -0.3053,-0.7044 -0.3427,-0.8784 -0.0411,-0.1715 -0.0284,-0.3541 0.0363,-0.542 0.0632,-0.2058 0.1848,-0.3691 0.3673,-0.4861 0.2651,-0.1707 0.5701,-0.1877 0.9176,-0.0525 0.2548,0.1052 0.5791,0.3682 0.972,0.7951 0.3906,0.423 0.7529,0.8975 1.0777,1.4247 0.6435,1.0435 1.0114,2.0002 1.1033,2.8704 0.049,0.4776 -0.1057,0.8277 -0.4609,1.0556 -0.2223,0.1432 -0.4105,0.1837 -0.5641,0.1219 -0.1539,-0.0615 -0.368,-0.2585 -0.6373,-0.5899 -0.5567,-0.6846 -1.2137,-0.7812 -1.97,-0.2945 -0.292,0.1877 -0.4349,0.4065 -0.4244,0.6639 0.007,0.2596 0.1684,0.6415 0.4811,1.1483 0.1913,0.3109 0.4626,0.6976 0.8044,1.1619 0.347,0.4652 0.5902,0.7617 0.7345,0.8907 0.1709,0.1641 0.4187,0.1978 0.733,0.0994 0.3169,-0.0952 0.7878,-0.3461 1.4179,-0.7514 0.9726,-0.6248 1.6231,-1.222 1.9613,-1.7932 0.3348,-0.5689 0.4527,-1.2861 0.3524,-2.1555 -0.053,-0.4989 -0.0485,-0.86 0.0158,-1.0856 0.0649,-0.2257 0.2126,-0.415 0.4448,-0.5641 0.2718,-0.1749 0.5726,-0.1985 0.8997,-0.0737 0.3291,0.1281 0.6007,0.373 0.8238,0.7344 0.2434,0.3952 0.4501,0.9559 0.6176,1.6778 0.1644,0.7249 0.2435,1.4094 0.237,2.06 -0.0119,0.3189 -0.0428,0.5459 -0.091,0.686 -0.0539,0.1383 -0.1536,0.2542 -0.301,0.3537 -0.1248,0.0757 -0.311,0.1712 -0.5718,0.2824 -0.4626,0.189 -1.0477,0.4946 -1.7535,0.9201 l -8.2414,5.2977 c -0.332,0.2134 -0.6333,0.3033 -0.9074,0.2718 -0.2707,-0.0335 -0.4927,-0.1834 -0.6593,-0.4535 -0.1188,-0.1922 -0.1645,-0.3566 -0.1367,-0.4919 0.0241,-0.1335 0.1347,-0.3602 0.3322,-0.6712 0.1401,-0.2081 0.2217,-0.4065 0.2376,-0.5913 0.0136,-0.1882 -0.0261,-0.4173 -0.1228,-0.6948 -0.4022,-1.1324 -1.1216,-2.5472 -2.1634,-4.2361 -1.5704,-2.5463 -2.7155,-4.0504 -3.4395,-4.5187 -0.1446,-0.0913 -0.2736,-0.1355 -0.3833,-0.1406 -0.1108,6e-4 -0.3132,0.0408 -0.6026,0.1279 -0.4391,0.1218 -0.7787,-0.008 -1.0185,-0.3972 -0.1312,-0.2129 -0.1825,-0.4388 -0.1619,-0.6834 0.0207,-0.2446 0.1168,-0.4567 0.2827,-0.6389 0.2165,-0.2194 0.6888,-0.5655 1.4156,-1.0324 z m 18.4215,-14.2095 c 0.5542,-0.5721 1.4207,-1.1835 2.5945,-1.8338 0.1409,-0.0773 0.2433,-0.1488 0.3093,-0.2171 0.0524,-0.0541 0.165,-0.2724 0.3351,-0.6466 0.0547,-0.1247 0.1315,-0.233 0.2282,-0.3325 0.3605,-0.3727 1.0275,-0.4768 2.0035,-0.3095 0.9791,0.1647 1.7283,0.5088 2.2518,1.0358 0.3036,0.3052 0.4714,0.6599 0.5012,1.0553 0.0269,0.398 -0.0851,0.7293 -0.3439,0.9967 -0.2151,0.2219 -0.4359,0.3594 -0.657,0.4121 -0.2217,0.0468 -0.7753,0.0967 -1.6642,0.1344 -1.2518,0.0553 -2.1949,0.4045 -2.8174,1.0479 -0.3033,0.313 -0.4677,0.6367 -0.5023,0.9672 -0.0343,0.3365 0.0672,0.6234 0.3067,0.8643 0.4734,0.4765 1.2427,0.4085 2.306,-0.2015 1.4448,-0.8164 2.4009,-1.3099 2.8655,-1.4775 2.0461,-0.7392 3.7262,-0.4478 5.0346,0.8694 1.1586,1.1659 1.6362,2.6028 1.4347,4.3104 -0.2072,1.7416 -1.0854,3.4149 -2.6286,5.0088 -0.6891,0.7118 -1.5001,1.3791 -2.4276,2.0021 -0.9303,0.6205 -1.6792,0.9964 -2.2408,1.1223 -0.4289,0.0907 -1.0417,-0.0482 -1.8331,-0.4233 -0.7915,-0.375 -1.467,-0.8413 -2.0209,-1.3991 -0.2676,-0.269 -0.4127,-0.5276 -0.4416,-0.7759 -0.0405,-0.3163 0.0411,-0.5765 0.2452,-0.7872 0.2069,-0.2134 0.508,-0.3089 0.9071,-0.2897 0.2327,0.004 0.8844,0.1146 1.9519,0.3348 0.5017,0.1006 1.0724,0.0281 1.7053,-0.2171 0.6356,-0.2478 1.1824,-0.6083 1.6453,-1.0863 0.3994,-0.4127 0.65,-0.8186 0.7475,-1.2262 0.0975,-0.4074 0.0297,-0.7288 -0.2044,-0.9644 -0.2171,-0.2188 -0.5029,-0.3038 -0.8547,-0.2642 -0.3483,0.0423 -0.8104,0.2183 -1.385,0.5338 -1.0139,0.5474 -1.8235,0.9292 -2.4318,1.1375 -0.6086,0.2138 -1.2419,0.3462 -1.9009,0.3907 -1.6118,0.1145 -2.9021,-0.3189 -3.8679,-1.2912 -0.4793,-0.4822 -0.8368,-1.0667 -1.0701,-1.751 -0.2333,-0.6848 -0.3143,-1.4014 -0.2409,-2.1532 0.1383,-1.7042 0.856,-3.2298 2.1597,-4.5762 z m 5.991,-5.8785 3.4778,-4.8631 c 0.7047,-0.9859 1.1988,-1.7175 1.4814,-2.2003 0.2826,-0.483 0.5142,-0.9836 0.6985,-1.5049 0.0598,-0.1585 0.1148,-0.2761 0.1678,-0.3501 0.2358,-0.3296 0.6146,-0.4938 1.1426,-0.4875 0.8615,8e-4 1.6864,0.2968 2.4835,0.8883 0.4014,0.2982 0.6553,0.6203 0.767,0.9652 0.1063,0.3459 0.0491,0.6696 -0.1658,0.9701 -0.1502,0.21 -0.307,0.3412 -0.4725,0.3962 -0.1653,0.0553 -0.4683,0.0732 -0.8949,0.053 -0.6129,-0.0294 -1.1432,0.1163 -1.5874,0.4394 -0.4442,0.3234 -1.0131,0.97 -1.7085,1.9426 -0.5201,0.7271 -0.7049,1.2625 -0.5646,1.6087 0.0754,0.1851 0.2214,0.3676 0.4405,0.5547 0.2185,0.1826 0.7934,0.6239 1.7331,1.3212 0.3702,0.2747 0.6471,0.3816 0.8257,0.3212 0.182,-0.0578 0.4621,-0.3546 0.8456,-0.8909 0.1896,-0.2654 0.2747,-0.4989 0.2525,-0.6985 -0.0252,-0.2015 -0.1627,-0.4224 -0.4169,-0.6556 -0.3283,-0.313 -0.5397,-0.5389 -0.6378,-0.686 -0.1007,-0.1437 -0.1551,-0.3184 -0.1633,-0.5171 -0.0159,-0.2146 0.0383,-0.4118 0.1653,-0.5896 0.1848,-0.2585 0.462,-0.3892 0.8345,-0.3951 0.2747,0.001 0.6724,0.1233 1.1925,0.371 0.5171,0.2449 1.0259,0.5491 1.5194,0.9151 0.9774,0.7253 1.6665,1.4745 2.0681,2.2473 0.2189,0.4252 0.2019,0.8078 -0.0453,1.1539 -0.1551,0.2166 -0.3152,0.3249 -0.4805,0.326 -0.1652,0.001 -0.436,-0.1012 -0.807,-0.307 -0.7659,-0.4252 -1.4119,-0.2664 -1.9389,0.4703 -0.2035,0.2843 -0.2565,0.5414 -0.1534,0.7764 0.101,0.2381 0.3898,0.5318 0.864,0.8841 0.2912,0.216 0.684,0.4726 1.1702,0.7742 0.4918,0.301 0.8257,0.4841 1.0066,0.5491 0.2182,0.0878 0.4612,0.0257 0.7177,-0.1843 0.2599,-0.2075 0.6066,-0.6182 1.046,-1.2322 0.6769,-0.9468 1.0652,-1.747 1.1724,-2.4044 0.1046,-0.6545 -0.0459,-1.3646 -0.455,-2.1336 -0.2301,-0.4428 -0.3574,-0.7795 -0.379,-1.0134 -0.0218,-0.2336 0.0468,-0.4652 0.2084,-0.6911 0.1896,-0.265 0.4606,-0.4005 0.8101,-0.4082 0.3524,-0.005 0.6939,0.1194 1.0327,0.3708 0.3699,0.2747 0.7656,0.7169 1.1835,1.3238 0.4158,0.6106 0.7384,1.216 0.968,1.8221 0.1049,0.3002 0.1584,0.523 0.1644,0.6707 3e-4,0.1488 -0.0505,0.2942 -0.1511,0.4419 -0.0887,0.1171 -0.2273,0.2767 -0.4294,0.4779 -0.3612,0.3501 -0.7949,0.8547 -1.2966,1.516 l -5.7404,8.0271 c -0.2314,0.3229 -0.4788,0.5205 -0.7453,0.5947 -0.2639,0.0712 -0.5247,0.0159 -0.7778,-0.1717 -0.18,-0.1341 -0.2821,-0.269 -0.3056,-0.4054 -0.0258,-0.1329 -0.005,-0.3849 0.0652,-0.7481 0.055,-0.246 0.0587,-0.4609 0.007,-0.6383 -0.0558,-0.1794 -0.1757,-0.3776 -0.3665,-0.5984 -0.7852,-0.8992 -1.9681,-1.9403 -3.5498,-3.1144 -2.3848,-1.7703 -3.9957,-2.7335 -4.8393,-2.8948 -0.1673,-0.0303 -0.3033,-0.0227 -0.4074,0.0142 -0.1029,0.0425 -0.276,0.1562 -0.5139,0.3461 -0.3639,0.2789 -0.7273,0.286 -1.091,0.0162 -0.1993,-0.148 -0.3294,-0.3388 -0.3989,-0.5732 -0.0694,-0.2347 -0.0572,-0.468 0.0306,-0.6996 0.1219,-0.2854 0.4355,-0.7849 0.9417,-1.4927 z m 15.1858,-15.4624 4.8209,2.1549 c 1.0862,0.4855 1.826,0.7029 2.2252,0.6499 0.4722,-0.0728 0.8722,-0.4835 1.199,-1.241 0.3526,-0.8161 0.455,-1.5386 0.3113,-2.1659 -0.1474,-0.629 -0.5514,-1.1982 -1.2127,-1.7164 -0.4096,-0.3098 -0.5332,-0.6574 -0.3702,-1.0341 0.1644,-0.3807 0.4657,-0.6125 0.8997,-0.7067 0.436,-0.089 0.9218,-0.0155 1.4525,0.2214 0.8674,0.3878 1.6534,1.1319 2.3581,2.2326 0.2234,0.3444 0.3595,0.6236 0.4099,0.834 0.0468,0.2083 0.0216,0.424 -0.0731,0.6437 l -1.3122,2.2555 -3.2357,7.49 c -0.2132,0.4941 -0.421,0.8161 -0.6188,0.9678 -0.2877,0.2205 -0.5911,0.2596 -0.9139,0.1153 -0.1973,-0.0881 -0.3198,-0.1998 -0.3742,-0.3418 -0.0521,-0.1367 -0.087,-0.432 -0.0978,-0.8819 -0.0144,-0.4915 -0.1672,-0.8694 -0.4609,-1.1404 -0.2472,-0.2196 -1.0655,-0.642 -2.4491,-1.2605 -0.6449,-0.2883 -1.5815,-0.6852 -2.8086,-1.19 -1.1772,-0.4828 -2.0614,-0.8513 -2.6524,-1.1069 -0.559,-0.2498 -0.9615,-0.3776 -1.2075,-0.3827 -0.2469,-0.001 -0.4748,0.1196 -0.6877,0.3648 -0.3651,0.4002 -0.6242,0.642 -0.7795,0.7254 -0.2753,0.1522 -0.5216,0.1774 -0.7473,0.0765 -0.5088,-0.2276 -0.7132,-0.8339 -0.6037,-1.8195 0.0884,-0.8382 0.3951,-1.8752 0.9294,-3.1122 0.5993,-1.3867 1.1183,-2.3902 1.5554,-3.0155 0.5726,-0.8005 1.1401,-1.0752 1.7062,-0.822 0.233,0.104 0.3798,0.2395 0.4405,0.4062 0.0604,0.1669 0.0859,0.5232 0.0782,1.0655 0.001,0.324 0.1313,0.5871 0.3867,0.7886 0.2568,0.1973 0.8682,0.5145 1.8323,0.9454 z m 1.7322,-14.2087 c -0.1261,0.5244 -0.0705,0.8793 0.1591,1.0636 0.1717,0.1414 0.5275,0.3203 1.0757,0.5383 0.5431,0.2211 1.0477,0.3872 1.508,0.5014 0.2736,0.0678 0.4856,0.0258 0.6358,-0.1304 0.1469,-0.157 0.2821,-0.4853 0.4029,-0.9862 0.0802,-0.3333 0.0785,-0.5933 -0.001,-0.7818 -0.0833,-0.1893 -0.2542,-0.3509 -0.5216,-0.4787 -0.7681,-0.3756 -1.0893,-0.8337 -0.9595,-1.3731 0.2228,-0.9238 1.4179,-1.1172 3.5901,-0.5783 1.3737,0.3402 2.3369,0.7931 2.8834,1.3521 0.3368,0.3427 0.4544,0.7254 0.3523,1.1483 -0.1074,0.4468 -0.4631,0.6342 -1.0683,0.5536 -0.3861,-0.0544 -0.6676,-0.0745 -0.8377,-0.0549 -0.1686,0.0155 -0.3435,0.0875 -0.5224,0.2117 -0.2891,0.1956 -0.4941,0.5272 -0.6103,1.0089 -0.0811,0.3373 -0.0762,0.5853 0.0128,0.735 0.089,0.1496 0.3038,0.2605 0.6426,0.3279 0.0609,0.0151 0.4025,0.1038 1.0318,0.2682 1.2858,0.3189 2.1022,0.3773 2.4531,0.1763 0.1329,-0.066 0.2276,-0.1411 0.2843,-0.2256 0.0536,-0.0896 0.1619,-0.322 0.3163,-0.7115 0.078,-0.1905 0.2172,-0.3328 0.4213,-0.4261 0.2038,-0.0935 0.4181,-0.1142 0.6429,-0.0586 0.5703,0.1414 0.8572,0.5745 0.856,1.2979 -0.009,1.0426 -0.2239,2.4537 -0.6531,4.2353 -0.3767,1.5644 -0.7271,2.6169 -1.0477,3.1626 -0.1445,0.248 -0.3444,0.4246 -0.6012,0.5377 -0.2574,0.1131 -0.5136,0.1401 -0.7724,0.0763 -0.3271,-0.0811 -0.5644,-0.2676 -0.7033,-0.5613 -0.0306,-0.0734 -0.0762,-0.3027 -0.1307,-0.6947 -0.0618,-0.4635 -0.3767,-0.813 -0.9541,-1.0426 -0.8805,-0.3623 -2.9483,-0.9491 -6.2011,-1.7552 -1.4037,-0.3481 -2.3252,-0.523 -2.7669,-0.5296 -0.4382,-0.006 -0.7852,0.163 -1.0403,0.5029 -0.2543,0.3359 -0.4586,0.5488 -0.6094,0.6389 -0.1497,0.0862 -0.3425,0.1001 -0.5709,0.0434 -0.3272,-0.0808 -0.5619,-0.3121 -0.7036,-0.6928 -0.1386,-0.3795 -0.1517,-0.811 -0.0366,-1.2883 0.0729,-0.3025 0.2024,-0.7393 0.3884,-1.3102 0.3931,-1.2149 0.7988,-2.6816 1.2129,-4.4011 0.6628,-2.7518 1.0327,-4.6221 1.1152,-5.6177 0.0156,-0.1318 0.0312,-0.2307 0.0482,-0.3007 0.0637,-0.2639 0.2738,-0.483 0.6284,-0.6506 0.9938,-0.4606 1.995,-0.5663 3.0067,-0.3155 0.4604,0.114 0.8036,0.3138 1.0239,0.6035 0.2208,0.2889 0.2883,0.6103 0.2024,0.9672 -0.0635,0.2639 -0.1619,0.4538 -0.3011,0.563 -0.1352,0.1102 -0.5845,0.3693 -1.3442,0.7775 -0.4654,0.2421 -0.8192,0.5905 -1.0533,1.0426 -0.2339,0.4521 -0.5298,1.3289 -0.8836,2.6314 z" />
      </g>
    </g>
  </g>
</svg>
